<svg width="32" height="32" viewBox="0 0 32 32" fill="none" xmlns="http://www.w3.org/2000/svg">
<path d="M19 9.25C20.7949 9.25 22.25 7.79493 22.25 6H23.75C23.75 7.79493 25.2051 9.25 27 9.25V10.75C25.2051 10.75 23.75 12.2051 23.75 14H22.25C22.25 12.2051 20.7949 10.75 19 10.75V9.25ZM8 11C8 9.89543 8.89543 9 10 9H17V7H10C7.79086 7 6 8.79086 6 11V21C6 23.2091 7.79086 25 10 25H22C24.2091 25 26 23.2091 26 21V16H24V21C24 22.1046 23.1046 23 22 23H10C8.89543 23 8 22.1046 8 21V11Z" fill="#1DAF9C"/>
</svg>
