<svg width="20" height="20" viewBox="0 0 20 20" fill="none" xmlns="http://www.w3.org/2000/svg">
<path d="M14.0922 10.0523C14.1133 12.3223 16.0836 13.0777 16.1054 13.0873C16.0887 13.1405 15.7906 14.1638 15.0674 15.2207C14.4421 16.1345 13.7933 17.0449 12.7711 17.0637C11.7668 17.0822 11.4438 16.4682 10.2955 16.4682C9.14757 16.4682 8.78874 17.0449 7.83799 17.0823C6.85135 17.1196 6.1 16.0942 5.46964 15.1837C4.18151 13.3214 3.19712 9.92133 4.51891 7.62621C5.17555 6.48644 6.34901 5.76469 7.6227 5.74618C8.59156 5.7277 9.50602 6.398 10.0983 6.398C10.6902 6.398 11.8015 5.59191 12.9698 5.71029C13.4589 5.73065 14.8317 5.90785 15.7132 7.1982C15.6422 7.24223 14.0752 8.1545 14.0922 10.0523ZM12.2046 4.47823C12.7284 3.84417 13.081 2.9615 12.9848 2.08325C12.2297 2.1136 11.3167 2.58639 10.7752 3.2201C10.2898 3.78128 9.86474 4.67948 9.97943 5.54035C10.821 5.60546 11.6807 5.11269 12.2046 4.47823Z" fill="black"/>
</svg>
