<svg width="20" height="20" viewBox="0 0 20 20" fill="none" xmlns="http://www.w3.org/2000/svg">
<path d="M4 13V16H7V17.5H2.5V13H4ZM17.5 13V17.5H13V16H16V13H17.5ZM6.625 6.25C6.62501 7.01488 6.88473 7.7571 7.36161 8.35511C7.8385 8.95313 8.5043 9.37151 9.25 9.54175V13.75H10.75L10.7508 9.541C11.4962 9.37064 12.1617 8.95231 12.6384 8.35446C13.1152 7.75661 13.3749 7.01465 13.375 6.25H14.875C14.8752 7.14204 14.6306 8.01704 14.1679 8.77968C13.7051 9.54233 13.042 10.1634 12.2508 10.5753L12.25 15.25H7.75V10.576C6.95847 10.1642 6.29513 9.54305 5.83227 8.78025C5.36941 8.01745 5.12476 7.14225 5.125 6.25H6.625ZM10 4.75C10.4973 4.75 10.9742 4.94754 11.3258 5.29917C11.6775 5.65081 11.875 6.12772 11.875 6.625C11.875 7.12228 11.6775 7.59919 11.3258 7.95083C10.9742 8.30246 10.4973 8.5 10 8.5C9.50272 8.5 9.02581 8.30246 8.67417 7.95083C8.32254 7.59919 8.125 7.12228 8.125 6.625C8.125 6.12772 8.32254 5.65081 8.67417 5.29917C9.02581 4.94754 9.50272 4.75 10 4.75ZM7 2.5V4L4 3.99925V7H2.5V2.5H7ZM17.5 2.5V7H16V4H13V2.5H17.5Z" fill="#22D3BB"/>
</svg>
