<svg width="32" height="32" viewBox="0 0 32 32" fill="none" xmlns="http://www.w3.org/2000/svg">
<path d="M26.7998 24.4H29.1998V26.8H2.7998V24.4H5.1998V6.40001C5.1998 6.08175 5.32623 5.77653 5.55128 5.55148C5.77632 5.32644 6.08154 5.20001 6.3998 5.20001H18.3998C18.7181 5.20001 19.0233 5.32644 19.2483 5.55148C19.4734 5.77653 19.5998 6.08175 19.5998 6.40001V24.4H24.3998V14.8H21.9998V12.4H25.5998C25.9181 12.4 26.2233 12.5264 26.4483 12.7515C26.6734 12.9765 26.7998 13.2818 26.7998 13.6V24.4ZM7.5998 7.60001V24.4H17.1998V7.60001H7.5998ZM9.9998 14.8H14.7998V17.2H9.9998V14.8ZM9.9998 10H14.7998V12.4H9.9998V10Z" fill="#1DAF9C"/>
</svg>
