<svg width="76" height="76" viewBox="0 0 76 76" fill="none" xmlns="http://www.w3.org/2000/svg">
<g clip-path="url(#clip0_361_8525)">
<path fill-rule="evenodd" clip-rule="evenodd" d="M38 0C17.0406 0 0 17.0406 0 38C0 58.9594 17.0406 76 38 76C58.9594 76 76 58.9594 76 38C76 17.0406 58.9594 0 38 0Z" fill="#4BAE4F"/>
<path fill-rule="evenodd" clip-rule="evenodd" d="M56.3769 25.1899C57.2973 26.1102 57.2973 27.6243 56.3769 28.5446L34.1113 50.8102C33.6512 51.2704 33.0426 51.5079 32.434 51.5079C31.8254 51.5079 31.2168 51.2704 30.7566 50.8102L19.6238 39.6774C18.7035 38.7571 18.7035 37.243 19.6238 36.3227C20.5441 35.4024 22.0582 35.4024 22.9785 36.3227L32.434 45.7782L53.0223 25.1899C53.9426 24.2547 55.4566 24.2547 56.3769 25.1899Z" fill="white"/>
</g>
<defs>
<clipPath id="clip0_361_8525">
<rect width="76" height="76" fill="white"/>
</clipPath>
</defs>
</svg>
