<svg width="96" height="96" viewBox="0 0 96 96" fill="none" xmlns="http://www.w3.org/2000/svg">
<path d="M0 48C0 21.4903 21.4903 0 48 0C74.5097 0 96 21.4903 96 48C96 74.5097 74.5097 96 48 96C21.4903 96 0 74.5097 0 48Z" fill="url(#paint0_linear_223_17379)" fill-opacity="0.1"/>
<g filter="url(#filter0_d_223_17379)">
<path d="M16 48C16 30.3269 30.3269 16 48 16C65.6731 16 80 30.3269 80 48C80 65.6731 65.6731 80 48 80C30.3269 80 16 65.6731 16 48Z" fill="white"/>
<path d="M48 16.5C65.397 16.5 79.5 30.603 79.5 48C79.5 65.397 65.397 79.5 48 79.5C30.603 79.5 16.5 65.397 16.5 48C16.5 30.603 30.603 16.5 48 16.5Z" stroke="#E1E4EA"/>
<path d="M50.3999 50.7024V60H38.3999C38.3995 58.5347 38.7346 57.0887 39.3795 55.7729C40.0243 54.4571 40.9618 53.3063 42.1202 52.4088C43.2785 51.5114 44.6269 50.891 46.0621 50.5952C47.4973 50.2994 48.9811 50.3361 50.3999 50.7024ZM47.9999 49.2C44.0219 49.2 40.7999 45.978 40.7999 42C40.7999 38.022 44.0219 34.8 47.9999 34.8C51.9779 34.8 55.1999 38.022 55.1999 42C55.1999 45.978 51.9779 49.2 47.9999 49.2ZM55.1999 54V50.4H57.5999V54H61.1999V56.4H57.5999V60H55.1999V56.4H51.5999V54H55.1999Z" fill="#525866"/>
</g>
<defs>
<filter id="filter0_d_223_17379" x="14" y="15" width="68" height="68" filterUnits="userSpaceOnUse" color-interpolation-filters="sRGB">
<feFlood flood-opacity="0" result="BackgroundImageFix"/>
<feColorMatrix in="SourceAlpha" type="matrix" values="0 0 0 0 0 0 0 0 0 0 0 0 0 0 0 0 0 0 127 0" result="hardAlpha"/>
<feOffset dy="1"/>
<feGaussianBlur stdDeviation="1"/>
<feComposite in2="hardAlpha" operator="out"/>
<feColorMatrix type="matrix" values="0 0 0 0 0.0392157 0 0 0 0 0.0509804 0 0 0 0 0.0784314 0 0 0 0.03 0"/>
<feBlend mode="normal" in2="BackgroundImageFix" result="effect1_dropShadow_223_17379"/>
<feBlend mode="normal" in="SourceGraphic" in2="effect1_dropShadow_223_17379" result="shape"/>
</filter>
<linearGradient id="paint0_linear_223_17379" x1="48" y1="0" x2="48" y2="96" gradientUnits="userSpaceOnUse">
<stop stop-color="#717784"/>
<stop offset="1" stop-color="#717784" stop-opacity="0"/>
</linearGradient>
</defs>
</svg>
