<svg width="96" height="96" viewBox="0 0 96 96" fill="none" xmlns="http://www.w3.org/2000/svg">
<path d="M0 48C0 21.4903 21.4903 0 48 0C74.5097 0 96 21.4903 96 48C96 74.5097 74.5097 96 48 96C21.4903 96 0 74.5097 0 48Z" fill="url(#paint0_linear_223_17346)" fill-opacity="0.1"/>
<g filter="url(#filter0_d_223_17346)">
<path d="M16 48C16 30.3269 30.3269 16 48 16C65.6731 16 80 30.3269 80 48C80 65.6731 65.6731 80 48 80C30.3269 80 16 65.6731 16 48Z" fill="white"/>
<path d="M48 16.5C65.397 16.5 79.5 30.603 79.5 48C79.5 65.397 65.397 79.5 48 79.5C30.603 79.5 16.5 65.397 16.5 48C16.5 30.603 30.603 16.5 48 16.5Z" stroke="#E1E4EA"/>
<path d="M38.4 60C38.4 57.4539 39.4115 55.0121 41.2118 53.2118C43.0121 51.4114 45.4539 50.4 48 50.4C50.5461 50.4 52.9879 51.4114 54.7882 53.2118C56.5886 55.0121 57.6 57.4539 57.6 60H38.4ZM48 49.2C44.022 49.2 40.8 45.978 40.8 42C40.8 38.022 44.022 34.8 48 34.8C51.978 34.8 55.2 38.022 55.2 42C55.2 45.978 51.978 49.2 48 49.2Z" fill="#525866"/>
</g>
<defs>
<filter id="filter0_d_223_17346" x="14" y="15" width="68" height="68" filterUnits="userSpaceOnUse" color-interpolation-filters="sRGB">
<feFlood flood-opacity="0" result="BackgroundImageFix"/>
<feColorMatrix in="SourceAlpha" type="matrix" values="0 0 0 0 0 0 0 0 0 0 0 0 0 0 0 0 0 0 127 0" result="hardAlpha"/>
<feOffset dy="1"/>
<feGaussianBlur stdDeviation="1"/>
<feComposite in2="hardAlpha" operator="out"/>
<feColorMatrix type="matrix" values="0 0 0 0 0.0392157 0 0 0 0 0.0509804 0 0 0 0 0.0784314 0 0 0 0.03 0"/>
<feBlend mode="normal" in2="BackgroundImageFix" result="effect1_dropShadow_223_17346"/>
<feBlend mode="normal" in="SourceGraphic" in2="effect1_dropShadow_223_17346" result="shape"/>
</filter>
<linearGradient id="paint0_linear_223_17346" x1="48" y1="0" x2="48" y2="96" gradientUnits="userSpaceOnUse">
<stop stop-color="#717784"/>
<stop offset="1" stop-color="#717784" stop-opacity="0"/>
</linearGradient>
</defs>
</svg>
