<svg width="174" height="279" viewBox="0 0 174 279" fill="none" xmlns="http://www.w3.org/2000/svg">
<path d="M60.4075 133.72C60.4075 124.21 60.3475 77.61 60.4075 68.1C60.5075 55.1 70.2575 44.38 83.5575 42.58C95.7875 40.92 108.178 49.19 111.558 61.35C112.168 63.4341 112.504 65.5889 112.558 67.76C112.668 78.22 112.618 125.76 112.618 136.23C112.618 136.62 112.558 137.01 112.518 137.59C95.1675 129.73 77.9075 129.77 60.4475 137.59L60.4075 133.72Z" fill="#171C35"/>
<path d="M24.9676 132.03C13.0561 144.029 4.9456 159.272 1.64983 175.855C-1.64593 192.438 0.01929 209.624 6.43734 225.265C12.8554 240.907 23.7415 254.31 37.7349 263.798C51.7283 273.287 68.2081 278.44 85.1143 278.615C102.02 278.789 118.603 273.976 132.789 264.777C146.975 255.579 158.135 242.403 164.873 226.897C171.612 211.391 173.631 194.243 170.678 177.596C167.724 160.949 159.929 145.541 148.268 133.3L172.638 23.3C173.261 20.5003 173.247 17.5962 172.597 14.8025C171.947 12.0088 170.678 9.39689 168.882 7.15992C167.087 4.92295 164.812 3.11809 162.225 1.87878C159.638 0.639464 156.806 -0.00262202 153.938 8.04728e-06H19.5876C16.7198 -0.000752842 13.8886 0.642561 11.3027 1.88245C8.71692 3.12235 6.44258 4.92717 4.64762 7.16367C2.85266 9.40017 1.58292 12.0112 0.93212 14.8041C0.281325 17.597 0.2661 20.5004 0.887565 23.3L24.9676 132.03ZM41.7476 151.35C42.4568 150.505 42.8711 149.452 42.9276 148.35C43.0076 134.35 42.9276 83.26 43.0176 69.27C43.1676 52.52 50.3076 39.48 64.7476 30.96C92.1576 14.79 127.368 33.24 129.688 64.96C130.248 72.6 129.778 117.41 129.778 125.08H130.008C130.008 132.75 129.948 140.43 130.068 148.08C130.131 149.315 130.59 150.497 131.378 151.45C146.768 169.3 151.528 189.67 144.028 211.98C136.448 234.56 120.138 248.27 96.7276 252.54C63.6676 258.54 32.0176 235.95 26.5576 202.77C23.3576 183.31 28.6376 166.15 41.7476 151.35Z" fill="#171C35"/>
</svg>
