<svg width="32" height="32" viewBox="0 0 32 32" fill="none" xmlns="http://www.w3.org/2000/svg">
<path d="M28 17.6092C26.7181 17.1551 25.3337 17.0734 24.0073 17.3735C22.6808 17.6736 21.4665 18.3432 20.5048 19.3049C19.5432 20.2665 18.8736 21.4808 18.5735 22.8073C18.2734 24.1338 18.3551 25.5181 18.8092 26.8H5.2C4.88174 26.8 4.57652 26.6736 4.35147 26.4485C4.12643 26.2235 4 25.9183 4 25.6V6.40001C4 6.08175 4.12643 5.77653 4.35147 5.55148C4.57652 5.32644 4.88174 5.20001 5.2 5.20001H26.8C27.1183 5.20001 27.4235 5.32644 27.6485 5.55148C27.8736 5.77653 28 6.08175 28 6.40001V17.6092ZM16.072 15.6196L8.3776 9.08561L6.8236 10.9144L16.0876 18.7804L25.1848 10.9084L23.6152 9.09281L16.0732 15.6196H16.072ZM24.4 28L20.1568 23.7568L21.8548 22.06L24.4 24.6064L28.6432 20.3632L30.34 22.06L24.4 28Z" fill="#525866"/>
</svg>
