<svg width="32" height="32" viewBox="0 0 32 32" fill="none" xmlns="http://www.w3.org/2000/svg">
<path d="M7.60019 17.2C7.60019 11.0944 11.0838 5.87679 16.0002 3.78159C20.9166 5.87679 24.4002 11.0944 24.4002 17.2C24.4002 18.1876 24.309 19.1512 24.1362 20.0836L26.4642 22.282C26.5604 22.3731 26.6238 22.4935 26.6444 22.6244C26.6651 22.7553 26.6418 22.8893 26.5782 23.0056L23.5842 28.4956C23.5395 28.5776 23.4764 28.648 23.3997 28.7012C23.3231 28.7545 23.2351 28.7892 23.1427 28.8025C23.0503 28.8157 22.9561 28.8073 22.8675 28.7778C22.779 28.7482 22.6985 28.6985 22.6326 28.6324L19.9518 25.9516C19.7268 25.7265 19.4216 25.6001 19.1034 25.6H12.897C12.5788 25.6001 12.2736 25.7265 12.0486 25.9516L9.36779 28.6324C9.30185 28.6985 9.22141 28.7482 9.13286 28.7778C9.04431 28.8073 8.9501 28.8157 8.8577 28.8025C8.76531 28.7892 8.67729 28.7545 8.60065 28.7012C8.524 28.648 8.46084 28.5776 8.41619 28.4956L5.42219 23.0056C5.35861 22.8893 5.33532 22.7553 5.35594 22.6244C5.37657 22.4935 5.43994 22.3731 5.53619 22.282L7.86419 20.0836C7.69259 19.1512 7.60019 18.1876 7.60019 17.2ZM9.37139 25.2352L10.3518 24.2548C11.0268 23.5796 11.9423 23.2002 12.897 23.2H19.1034C20.0581 23.2002 20.9736 23.5796 21.6486 24.2548L22.629 25.2352L23.8074 23.0752L22.4874 21.8272C22.1956 21.5517 21.9777 21.2074 21.8533 20.8258C21.729 20.4443 21.7024 20.0377 21.7758 19.6432C21.9246 18.8464 22.0002 18.0292 22.0002 17.2C22.0002 12.556 19.6062 8.43999 16.0002 6.44799C12.3942 8.43999 10.0002 12.556 10.0002 17.2C10.0002 18.0292 10.0758 18.8464 10.2246 19.6444C10.298 20.0389 10.2713 20.4455 10.147 20.827C10.0227 21.2086 9.80472 21.5529 9.51299 21.8284L8.19299 23.0752L9.37139 25.2352ZM16.0002 17.2C15.3637 17.2 14.7532 16.9471 14.3031 16.497C13.853 16.047 13.6002 15.4365 13.6002 14.8C13.6002 14.1635 13.853 13.553 14.3031 13.1029C14.7532 12.6528 15.3637 12.4 16.0002 12.4C16.6367 12.4 17.2472 12.6528 17.6972 13.1029C18.1473 13.553 18.4002 14.1635 18.4002 14.8C18.4002 15.4365 18.1473 16.047 17.6972 16.497C17.2472 16.9471 16.6367 17.2 16.0002 17.2Z" fill="#1DAF9C"/>
</svg>
