<svg width="32" height="32" viewBox="0 0 32 32" fill="none" xmlns="http://www.w3.org/2000/svg">
<path d="M6.1398 4.99119L16.0002 2.79999L25.8606 4.99119C26.1271 5.05042 26.3654 5.19875 26.5362 5.41167C26.707 5.6246 26.8001 5.88941 26.8002 6.16239V18.1468C26.8001 19.3321 26.5074 20.499 25.9481 21.544C25.3887 22.589 24.58 23.4797 23.5938 24.1372L16.0002 29.2L8.4066 24.1372C7.42052 23.4799 6.61195 22.5893 6.05261 21.5445C5.49328 20.4998 5.20048 19.3331 5.2002 18.148V6.16239C5.20024 5.88941 5.29336 5.6246 5.46418 5.41167C5.635 5.19875 5.87332 5.05042 6.1398 4.99119ZM7.6002 7.12479V18.1468C7.60021 18.9369 7.79528 19.7149 8.16811 20.4115C8.54093 21.1082 9.07998 21.7021 9.7374 22.1404L16.0002 26.3164L22.263 22.1404C22.9202 21.7022 23.4592 21.1085 23.832 20.4121C24.2048 19.7156 24.4 18.9379 24.4002 18.148V7.12479L16.0002 5.25999L7.6002 7.12479Z" fill="#1DAF9C"/>
</svg>
