<svg width="680" height="88" viewBox="0 0 680 88" fill="none" xmlns="http://www.w3.org/2000/svg">
<rect width="680" height="88" fill="white"/>
<path d="M27.696 38.144C27.16 38.144 26.68 38.02 26.256 37.772C25.84 37.524 25.508 37.168 25.26 36.704C25.012 36.232 24.888 35.672 24.888 35.024C24.888 34.376 25.012 33.82 25.26 33.356C25.508 32.884 25.844 32.524 26.268 32.276C26.7 32.028 27.176 31.904 27.696 31.904C28.432 31.904 29.02 32.088 29.46 32.456C29.9 32.824 30.18 33.316 30.3 33.932H29.268C29.172 33.604 28.988 33.344 28.716 33.152C28.444 32.952 28.1 32.852 27.684 32.852C27.38 32.852 27.092 32.932 26.82 33.092C26.548 33.252 26.328 33.492 26.16 33.812C25.992 34.132 25.908 34.536 25.908 35.024C25.908 35.512 25.992 35.92 26.16 36.248C26.328 36.568 26.548 36.808 26.82 36.968C27.092 37.128 27.38 37.208 27.684 37.208C28.124 37.208 28.472 37.108 28.728 36.908C28.992 36.708 29.172 36.444 29.268 36.116H30.3C30.148 36.748 29.848 37.244 29.4 37.604C28.96 37.964 28.392 38.144 27.696 38.144ZM34.7953 38.144C34.2353 38.144 33.7393 38.016 33.3073 37.76C32.8753 37.504 32.5353 37.144 32.2873 36.68C32.0393 36.208 31.9153 35.656 31.9153 35.024C31.9153 34.392 32.0393 33.844 32.2873 33.38C32.5353 32.908 32.8753 32.544 33.3073 32.288C33.7393 32.032 34.2353 31.904 34.7953 31.904C35.3553 31.904 35.8513 32.032 36.2833 32.288C36.7153 32.544 37.0553 32.908 37.3033 33.38C37.5513 33.844 37.6753 34.392 37.6753 35.024C37.6753 35.656 37.5513 36.208 37.3033 36.68C37.0553 37.144 36.7153 37.504 36.2833 37.76C35.8513 38.016 35.3553 38.144 34.7953 38.144ZM34.7953 37.184C35.1393 37.184 35.4513 37.108 35.7313 36.956C36.0113 36.804 36.2313 36.568 36.3913 36.248C36.5593 35.928 36.6433 35.52 36.6433 35.024C36.6433 34.528 36.5593 34.12 36.3913 33.8C36.2313 33.48 36.0113 33.244 35.7313 33.092C35.4513 32.94 35.1393 32.864 34.7953 32.864C34.4593 32.864 34.1513 32.94 33.8713 33.092C33.5913 33.244 33.3673 33.48 33.1993 33.8C33.0313 34.12 32.9473 34.528 32.9473 35.024C32.9473 35.768 33.1273 36.316 33.4873 36.668C33.8473 37.012 34.2833 37.184 34.7953 37.184ZM39.4466 38V32.048H40.2866L40.3946 32.948H40.4546C40.6146 32.66 40.8666 32.416 41.2106 32.216C41.5546 32.008 41.9506 31.904 42.3986 31.904C43.1266 31.904 43.6706 32.12 44.0306 32.552C44.3986 32.984 44.5826 33.608 44.5826 34.424V38H43.5746V34.544C43.5746 34.016 43.4586 33.604 43.2266 33.308C42.9946 33.004 42.6346 32.852 42.1466 32.852C41.6746 32.852 41.2746 33.016 40.9466 33.344C40.6186 33.664 40.4546 34.128 40.4546 34.736V38H39.4466ZM49.2459 38.144C48.4859 38.144 47.8699 37.968 47.3979 37.616C46.9339 37.256 46.6739 36.764 46.6179 36.14H47.6619C47.7099 36.468 47.8699 36.736 48.1419 36.944C48.4219 37.152 48.7979 37.256 49.2699 37.256C49.7179 37.256 50.0499 37.16 50.2659 36.968C50.4899 36.776 50.6019 36.556 50.6019 36.308C50.6019 35.972 50.4699 35.744 50.2059 35.624C49.9419 35.496 49.5459 35.4 49.0179 35.336C48.3859 35.264 47.8619 35.092 47.4459 34.82C47.0299 34.548 46.8219 34.14 46.8219 33.596C46.8219 33.108 47.0259 32.704 47.4339 32.384C47.8419 32.064 48.3979 31.904 49.1019 31.904C49.7979 31.904 50.3459 32.064 50.7459 32.384C51.1459 32.696 51.3739 33.144 51.4299 33.728H50.4339C50.4099 33.44 50.2699 33.212 50.0139 33.044C49.7659 32.868 49.4539 32.78 49.0779 32.78C48.6859 32.78 48.3819 32.856 48.1659 33.008C47.9499 33.152 47.8419 33.344 47.8419 33.584C47.8419 33.824 47.9619 34.024 48.2019 34.184C48.4499 34.336 48.8379 34.436 49.3659 34.484C49.7819 34.532 50.1619 34.612 50.5059 34.724C50.8499 34.836 51.1219 35.012 51.3219 35.252C51.5299 35.492 51.6339 35.828 51.6339 36.26C51.6419 36.62 51.5419 36.944 51.3339 37.232C51.1339 37.512 50.8539 37.736 50.4939 37.904C50.1339 38.064 49.7179 38.144 49.2459 38.144ZM57.0053 38C56.4613 38 56.0333 37.868 55.7213 37.604C55.4093 37.34 55.2533 36.864 55.2533 36.176V32.912H53.7413V32.048H54.6413C55.0493 32.048 55.2853 31.848 55.3493 31.448L55.5173 30.524H56.2613V32.048H58.6373V32.912H56.2613V36.176C56.2613 36.512 56.3373 36.748 56.4893 36.884C56.6493 37.02 56.9213 37.088 57.3053 37.088H58.6373V38H57.0053ZM27.696 58.144C27.16 58.144 26.68 58.02 26.256 57.772C25.84 57.524 25.508 57.168 25.26 56.704C25.012 56.232 24.888 55.672 24.888 55.024C24.888 54.376 25.012 53.82 25.26 53.356C25.508 52.884 25.844 52.524 26.268 52.276C26.7 52.028 27.176 51.904 27.696 51.904C28.432 51.904 29.02 52.088 29.46 52.456C29.9 52.824 30.18 53.316 30.3 53.932H29.268C29.172 53.604 28.988 53.344 28.716 53.152C28.444 52.952 28.1 52.852 27.684 52.852C27.38 52.852 27.092 52.932 26.82 53.092C26.548 53.252 26.328 53.492 26.16 53.812C25.992 54.132 25.908 54.536 25.908 55.024C25.908 55.512 25.992 55.92 26.16 56.248C26.328 56.568 26.548 56.808 26.82 56.968C27.092 57.128 27.38 57.208 27.684 57.208C28.124 57.208 28.472 57.108 28.728 56.908C28.992 56.708 29.172 56.444 29.268 56.116H30.3C30.148 56.748 29.848 57.244 29.4 57.604C28.96 57.964 28.392 58.144 27.696 58.144ZM34.7953 58.144C34.2353 58.144 33.7393 58.016 33.3073 57.76C32.8753 57.504 32.5353 57.144 32.2873 56.68C32.0393 56.208 31.9153 55.656 31.9153 55.024C31.9153 54.392 32.0393 53.844 32.2873 53.38C32.5353 52.908 32.8753 52.544 33.3073 52.288C33.7393 52.032 34.2353 51.904 34.7953 51.904C35.3553 51.904 35.8513 52.032 36.2833 52.288C36.7153 52.544 37.0553 52.908 37.3033 53.38C37.5513 53.844 37.6753 54.392 37.6753 55.024C37.6753 55.656 37.5513 56.208 37.3033 56.68C37.0553 57.144 36.7153 57.504 36.2833 57.76C35.8513 58.016 35.3553 58.144 34.7953 58.144ZM34.7953 57.184C35.1393 57.184 35.4513 57.108 35.7313 56.956C36.0113 56.804 36.2313 56.568 36.3913 56.248C36.5593 55.928 36.6433 55.52 36.6433 55.024C36.6433 54.528 36.5593 54.12 36.3913 53.8C36.2313 53.48 36.0113 53.244 35.7313 53.092C35.4513 52.94 35.1393 52.864 34.7953 52.864C34.4593 52.864 34.1513 52.94 33.8713 53.092C33.5913 53.244 33.3673 53.48 33.1993 53.8C33.0313 54.12 32.9473 54.528 32.9473 55.024C32.9473 55.768 33.1273 56.316 33.4873 56.668C33.8473 57.012 34.2833 57.184 34.7953 57.184ZM39.4466 58V52.048H40.2866L40.3946 52.948H40.4546C40.6146 52.66 40.8666 52.416 41.2106 52.216C41.5546 52.008 41.9506 51.904 42.3986 51.904C43.1266 51.904 43.6706 52.12 44.0306 52.552C44.3986 52.984 44.5826 53.608 44.5826 54.424V58H43.5746V54.544C43.5746 54.016 43.4586 53.604 43.2266 53.308C42.9946 53.004 42.6346 52.852 42.1466 52.852C41.6746 52.852 41.2746 53.016 40.9466 53.344C40.6186 53.664 40.4546 54.128 40.4546 54.736V58H39.4466ZM49.2459 58.144C48.4859 58.144 47.8699 57.968 47.3979 57.616C46.9339 57.256 46.6739 56.764 46.6179 56.14H47.6619C47.7099 56.468 47.8699 56.736 48.1419 56.944C48.4219 57.152 48.7979 57.256 49.2699 57.256C49.7179 57.256 50.0499 57.16 50.2659 56.968C50.4899 56.776 50.6019 56.556 50.6019 56.308C50.6019 55.972 50.4699 55.744 50.2059 55.624C49.9419 55.496 49.5459 55.4 49.0179 55.336C48.3859 55.264 47.8619 55.092 47.4459 54.82C47.0299 54.548 46.8219 54.14 46.8219 53.596C46.8219 53.108 47.0259 52.704 47.4339 52.384C47.8419 52.064 48.3979 51.904 49.1019 51.904C49.7979 51.904 50.3459 52.064 50.7459 52.384C51.1459 52.696 51.3739 53.144 51.4299 53.728H50.4339C50.4099 53.44 50.2699 53.212 50.0139 53.044C49.7659 52.868 49.4539 52.78 49.0779 52.78C48.6859 52.78 48.3819 52.856 48.1659 53.008C47.9499 53.152 47.8419 53.344 47.8419 53.584C47.8419 53.824 47.9619 54.024 48.2019 54.184C48.4499 54.336 48.8379 54.436 49.3659 54.484C49.7819 54.532 50.1619 54.612 50.5059 54.724C50.8499 54.836 51.1219 55.012 51.3219 55.252C51.5299 55.492 51.6339 55.828 51.6339 56.26C51.6419 56.62 51.5419 56.944 51.3339 57.232C51.1339 57.512 50.8539 57.736 50.4939 57.904C50.1339 58.064 49.7179 58.144 49.2459 58.144ZM57.0053 58C56.4613 58 56.0333 57.868 55.7213 57.604C55.4093 57.34 55.2533 56.864 55.2533 56.176V52.912H53.7413V52.048H54.6413C55.0493 52.048 55.2853 51.848 55.3493 51.448L55.5173 50.524H56.2613V52.048H58.6373V52.912H56.2613V56.176C56.2613 56.512 56.3373 56.748 56.4893 56.884C56.6493 57.02 56.9213 57.088 57.3053 57.088H58.6373V58H57.0053ZM132.986 58V52.048H133.826L133.934 52.948H133.994C134.154 52.66 134.406 52.416 134.75 52.216C135.094 52.008 135.49 51.904 135.938 51.904C136.666 51.904 137.21 52.12 137.57 52.552C137.938 52.984 138.122 53.608 138.122 54.424V58H137.114V54.544C137.114 54.016 136.998 53.604 136.766 53.308C136.534 53.004 136.174 52.852 135.686 52.852C135.214 52.852 134.814 53.016 134.486 53.344C134.158 53.664 133.994 54.128 133.994 54.736V58H132.986ZM142.785 58.144C142.225 58.144 141.729 58.016 141.297 57.76C140.873 57.496 140.537 57.132 140.289 56.668C140.041 56.196 139.917 55.648 139.917 55.024C139.917 54.4 140.037 53.856 140.277 53.392C140.525 52.92 140.865 52.556 141.297 52.3C141.729 52.036 142.233 51.904 142.809 51.904C143.385 51.904 143.877 52.036 144.285 52.3C144.693 52.556 145.005 52.896 145.221 53.32C145.437 53.744 145.545 54.2 145.545 54.688C145.545 54.776 145.541 54.864 145.533 54.952C145.533 55.04 145.533 55.14 145.533 55.252H140.913C140.937 55.692 141.037 56.06 141.213 56.356C141.397 56.644 141.625 56.86 141.897 57.004C142.177 57.148 142.473 57.22 142.785 57.22C143.225 57.22 143.569 57.128 143.817 56.944C144.065 56.76 144.253 56.504 144.381 56.176H145.377C145.241 56.728 144.957 57.196 144.525 57.58C144.093 57.956 143.513 58.144 142.785 58.144ZM142.785 52.804C142.321 52.804 141.913 52.944 141.561 53.224C141.217 53.504 141.005 53.896 140.925 54.4H144.549C144.517 53.904 144.337 53.516 144.009 53.236C143.689 52.948 143.281 52.804 142.785 52.804ZM147.808 58L146.488 52.048H147.484L148.336 56.5L149.356 52.048H150.484L151.504 56.5L152.356 52.048H153.364L152.032 58H151L149.92 53.38L148.84 58H147.808Z" fill="#FB4BA3"/>
<path d="M68.0599 38V29.6H70.8559C71.4959 29.6 72.0199 29.716 72.4279 29.948C72.8359 30.18 73.1359 30.488 73.3279 30.872C73.5199 31.256 73.6159 31.68 73.6159 32.144C73.6159 32.608 73.5199 33.032 73.3279 33.416C73.1359 33.8 72.8359 34.108 72.4279 34.34C72.0199 34.572 71.4959 34.688 70.8559 34.688H69.0679V38H68.0599ZM69.0679 33.764H70.8319C71.4239 33.764 71.8639 33.616 72.1519 33.32C72.4399 33.016 72.5839 32.624 72.5839 32.144C72.5839 31.664 72.4399 31.272 72.1519 30.968C71.8639 30.664 71.4239 30.512 70.8319 30.512H69.0679V33.764ZM75.3752 38V37.136H76.8992V33.212C76.8992 33.012 76.8032 32.912 76.6112 32.912H75.5312V32.048H76.9832C77.2472 32.048 77.4592 32.12 77.6192 32.264C77.7792 32.408 77.8592 32.62 77.8592 32.9V33.152H77.9072C78.0032 32.752 78.1832 32.444 78.4472 32.228C78.7192 32.012 79.0952 31.904 79.5752 31.904H80.6672V32.972H79.4312C78.9432 32.972 78.5672 33.136 78.3032 33.464C78.0392 33.784 77.9072 34.196 77.9072 34.7V37.136H79.7792V38H75.3752ZM85.0905 30.992C84.8505 30.992 84.6505 30.912 84.4905 30.752C84.3305 30.592 84.2505 30.4 84.2505 30.176C84.2505 29.944 84.3305 29.752 84.4905 29.6C84.6505 29.44 84.8505 29.36 85.0905 29.36C85.3225 29.36 85.5185 29.44 85.6785 29.6C85.8465 29.752 85.9305 29.944 85.9305 30.176C85.9305 30.4 85.8465 30.592 85.6785 30.752C85.5185 30.912 85.3225 30.992 85.0905 30.992ZM82.7625 38V37.136H84.6585V33.212C84.6585 33.012 84.5585 32.912 84.3585 32.912H82.9665V32.048H84.5985C85.3105 32.048 85.6665 32.404 85.6665 33.116V37.136H87.5625V38H82.7625ZM91.7698 38L89.1538 32.048H90.3058L92.3578 36.896L94.4218 32.048H95.5618L92.9338 38H91.7698ZM97.7411 40.64L99.2051 37.424H98.8571L96.5051 32.048H97.5971L99.5531 36.656L101.617 32.048H102.673L98.7971 40.64H97.7411ZM104.336 38V37.124H106.244V30.476H104.336V29.6H109.16V30.476H107.252V37.124H109.16V38H104.336ZM111.136 38V29.6H112.9C114.276 29.6 115.292 29.976 115.948 30.728C116.612 31.48 116.944 32.504 116.944 33.8C116.944 35.096 116.612 36.12 115.948 36.872C115.292 37.624 114.276 38 112.9 38H111.136ZM112.144 37.076H112.876C113.612 37.076 114.2 36.94 114.64 36.668C115.088 36.396 115.412 36.016 115.612 35.528C115.812 35.04 115.912 34.464 115.912 33.8C115.912 33.136 115.812 32.56 115.612 32.072C115.412 31.584 115.088 31.204 114.64 30.932C114.2 30.66 113.612 30.524 112.876 30.524H112.144V37.076ZM193.668 40.22C193.252 39.756 192.864 39.236 192.504 38.66C192.152 38.092 191.868 37.448 191.652 36.728C191.436 36 191.328 35.172 191.328 34.244C191.328 33.316 191.436 32.492 191.652 31.772C191.868 31.044 192.152 30.396 192.504 29.828C192.864 29.252 193.252 28.732 193.668 28.268H194.736V28.376C194.256 28.896 193.836 29.452 193.476 30.044C193.116 30.628 192.836 31.264 192.636 31.952C192.436 32.64 192.336 33.404 192.336 34.244C192.336 35.084 192.436 35.848 192.636 36.536C192.836 37.224 193.116 37.86 193.476 38.444C193.836 39.036 194.256 39.592 194.736 40.112V40.22H193.668ZM299.378 40.22V40.112C299.858 39.592 300.278 39.036 300.638 38.444C300.998 37.86 301.278 37.224 301.478 36.536C301.678 35.848 301.778 35.084 301.778 34.244C301.778 33.404 301.678 32.64 301.478 31.952C301.278 31.264 300.998 30.628 300.638 30.044C300.278 29.452 299.858 28.896 299.378 28.376V28.268H300.446C300.862 28.732 301.246 29.252 301.598 29.828C301.958 30.396 302.246 31.044 302.462 31.772C302.678 32.492 302.786 33.316 302.786 34.244C302.786 35.172 302.678 36 302.462 36.728C302.246 37.448 301.958 38.092 301.598 38.66C301.246 39.236 300.862 39.756 300.446 40.22H299.378ZM308.217 33.284C307.969 33.284 307.757 33.2 307.581 33.032C307.405 32.864 307.317 32.656 307.317 32.408C307.317 32.168 307.405 31.964 307.581 31.796C307.757 31.628 307.969 31.544 308.217 31.544C308.465 31.544 308.677 31.628 308.853 31.796C309.029 31.964 309.117 32.168 309.117 32.408C309.117 32.656 309.029 32.864 308.853 33.032C308.677 33.2 308.465 33.284 308.217 33.284ZM306.585 39.464L307.641 36.236H308.973L307.545 39.464H306.585ZM70.8679 58.144C70.3319 58.144 69.8519 58.02 69.4279 57.772C69.0119 57.524 68.6799 57.168 68.4319 56.704C68.1839 56.232 68.0599 55.672 68.0599 55.024C68.0599 54.376 68.1839 53.82 68.4319 53.356C68.6799 52.884 69.0159 52.524 69.4399 52.276C69.8719 52.028 70.3479 51.904 70.8679 51.904C71.6039 51.904 72.1919 52.088 72.6319 52.456C73.0719 52.824 73.3519 53.316 73.4719 53.932H72.4399C72.3439 53.604 72.1599 53.344 71.8879 53.152C71.6159 52.952 71.2719 52.852 70.8559 52.852C70.5519 52.852 70.2639 52.932 69.9919 53.092C69.7199 53.252 69.4999 53.492 69.3319 53.812C69.1639 54.132 69.0799 54.536 69.0799 55.024C69.0799 55.512 69.1639 55.92 69.3319 56.248C69.4999 56.568 69.7199 56.808 69.9919 56.968C70.2639 57.128 70.5519 57.208 70.8559 57.208C71.2959 57.208 71.6439 57.108 71.8999 56.908C72.1639 56.708 72.3439 56.444 72.4399 56.116H73.4719C73.3199 56.748 73.0199 57.244 72.5719 57.604C72.1319 57.964 71.5639 58.144 70.8679 58.144ZM75.2672 58V57.136H77.2952V50.524C77.2952 50.324 77.1952 50.224 76.9952 50.224H75.4832V49.36H77.2352C77.5792 49.36 77.8432 49.452 78.0272 49.636C78.2112 49.82 78.3032 50.084 78.3032 50.428V57.136H80.3312V58H75.2672ZM85.0905 50.992C84.8505 50.992 84.6505 50.912 84.4905 50.752C84.3305 50.592 84.2505 50.4 84.2505 50.176C84.2505 49.944 84.3305 49.752 84.4905 49.6C84.6505 49.44 84.8505 49.36 85.0905 49.36C85.3225 49.36 85.5185 49.44 85.6785 49.6C85.8465 49.752 85.9305 49.944 85.9305 50.176C85.9305 50.4 85.8465 50.592 85.6785 50.752C85.5185 50.912 85.3225 50.992 85.0905 50.992ZM82.7625 58V57.136H84.6585V53.212C84.6585 53.012 84.5585 52.912 84.3585 52.912H82.9665V52.048H84.5985C85.3105 52.048 85.6665 52.404 85.6665 53.116V57.136H87.5625V58H82.7625ZM92.4178 58.144C91.8578 58.144 91.3618 58.016 90.9298 57.76C90.5058 57.496 90.1698 57.132 89.9218 56.668C89.6738 56.196 89.5498 55.648 89.5498 55.024C89.5498 54.4 89.6698 53.856 89.9098 53.392C90.1578 52.92 90.4978 52.556 90.9298 52.3C91.3618 52.036 91.8658 51.904 92.4418 51.904C93.0178 51.904 93.5098 52.036 93.9178 52.3C94.3258 52.556 94.6378 52.896 94.8538 53.32C95.0698 53.744 95.1778 54.2 95.1778 54.688C95.1778 54.776 95.1738 54.864 95.1658 54.952C95.1658 55.04 95.1658 55.14 95.1658 55.252H90.5458C90.5698 55.692 90.6698 56.06 90.8458 56.356C91.0298 56.644 91.2578 56.86 91.5298 57.004C91.8098 57.148 92.1058 57.22 92.4178 57.22C92.8578 57.22 93.2018 57.128 93.4498 56.944C93.6978 56.76 93.8858 56.504 94.0138 56.176H95.0098C94.8738 56.728 94.5898 57.196 94.1578 57.58C93.7258 57.956 93.1458 58.144 92.4178 58.144ZM92.4178 52.804C91.9538 52.804 91.5458 52.944 91.1938 53.224C90.8498 53.504 90.6378 53.896 90.5578 54.4H94.1818C94.1498 53.904 93.9698 53.516 93.6418 53.236C93.3218 52.948 92.9138 52.804 92.4178 52.804ZM97.0091 58V52.048H97.8491L97.9571 52.948H98.0171C98.1771 52.66 98.4291 52.416 98.7731 52.216C99.1171 52.008 99.5131 51.904 99.9611 51.904C100.689 51.904 101.233 52.12 101.593 52.552C101.961 52.984 102.145 53.608 102.145 54.424V58H101.137V54.544C101.137 54.016 101.021 53.604 100.789 53.308C100.557 53.004 100.197 52.852 99.7091 52.852C99.2371 52.852 98.8371 53.016 98.5091 53.344C98.1811 53.664 98.0171 54.128 98.0171 54.736V58H97.0091ZM107.372 58C106.828 58 106.4 57.868 106.088 57.604C105.776 57.34 105.62 56.864 105.62 56.176V52.912H104.108V52.048H105.008C105.416 52.048 105.652 51.848 105.716 51.448L105.884 50.524H106.628V52.048H109.004V52.912H106.628V56.176C106.628 56.512 106.704 56.748 106.856 56.884C107.016 57.02 107.288 57.088 107.672 57.088H109.004V58H107.372ZM215.254 60.22C214.838 59.756 214.45 59.236 214.09 58.66C213.738 58.092 213.454 57.448 213.238 56.728C213.022 56 212.914 55.172 212.914 54.244C212.914 53.316 213.022 52.492 213.238 51.772C213.454 51.044 213.738 50.396 214.09 49.828C214.45 49.252 214.838 48.732 215.254 48.268H216.322V48.376C215.842 48.896 215.422 49.452 215.062 50.044C214.702 50.628 214.422 51.264 214.222 51.952C214.022 52.64 213.922 53.404 213.922 54.244C213.922 55.084 214.022 55.848 214.222 56.536C214.422 57.224 214.702 57.86 215.062 58.444C215.422 59.036 215.842 59.592 216.322 60.112V60.22H215.254ZM270.597 60.22V60.112C271.077 59.592 271.497 59.036 271.857 58.444C272.217 57.86 272.497 57.224 272.697 56.536C272.897 55.848 272.997 55.084 272.997 54.244C272.997 53.404 272.897 52.64 272.697 51.952C272.497 51.264 272.217 50.628 271.857 50.044C271.497 49.452 271.077 48.896 270.597 48.376V48.268H271.665C272.081 48.732 272.465 49.252 272.817 49.828C273.177 50.396 273.465 51.044 273.681 51.772C273.897 52.492 274.005 53.316 274.005 54.244C274.005 55.172 273.897 56 273.681 56.728C273.465 57.448 273.177 58.092 272.817 58.66C272.465 59.236 272.081 59.756 271.665 60.22H270.597ZM279.436 53.284C279.188 53.284 278.976 53.2 278.8 53.032C278.624 52.864 278.536 52.656 278.536 52.408C278.536 52.168 278.624 51.964 278.8 51.796C278.976 51.628 279.188 51.544 279.436 51.544C279.684 51.544 279.896 51.628 280.072 51.796C280.248 51.964 280.336 52.168 280.336 52.408C280.336 52.656 280.248 52.864 280.072 53.032C279.896 53.2 279.684 53.284 279.436 53.284ZM277.804 59.464L278.86 56.236H280.192L278.764 59.464H277.804Z" fill="#A4A4A4"/>
<path d="M125.634 32.78V31.868H131.034V32.78H125.634ZM125.634 35.732V34.82H131.034V35.732H125.634ZM118.439 52.78V51.868H123.839V52.78H118.439ZM118.439 55.732V54.82H123.839V55.732H118.439Z" fill="#335CFF"/>
<path d="M140.133 38V37.136H141.657V33.212C141.657 33.012 141.561 32.912 141.369 32.912H140.289V32.048H141.741C142.005 32.048 142.217 32.12 142.377 32.264C142.537 32.408 142.617 32.62 142.617 32.9V33.152H142.665C142.761 32.752 142.941 32.444 143.205 32.228C143.477 32.012 143.853 31.904 144.333 31.904H145.425V32.972H144.189C143.701 32.972 143.325 33.136 143.061 33.464C142.797 33.784 142.665 34.196 142.665 34.7V37.136H144.537V38H140.133ZM149.98 38.144C149.42 38.144 148.924 38.016 148.492 37.76C148.068 37.496 147.732 37.132 147.484 36.668C147.236 36.196 147.112 35.648 147.112 35.024C147.112 34.4 147.232 33.856 147.472 33.392C147.72 32.92 148.06 32.556 148.492 32.3C148.924 32.036 149.428 31.904 150.004 31.904C150.58 31.904 151.072 32.036 151.48 32.3C151.888 32.556 152.2 32.896 152.416 33.32C152.632 33.744 152.74 34.2 152.74 34.688C152.74 34.776 152.736 34.864 152.728 34.952C152.728 35.04 152.728 35.14 152.728 35.252H148.108C148.132 35.692 148.232 36.06 148.408 36.356C148.592 36.644 148.82 36.86 149.092 37.004C149.372 37.148 149.668 37.22 149.98 37.22C150.42 37.22 150.764 37.128 151.012 36.944C151.26 36.76 151.448 36.504 151.576 36.176H152.572C152.436 36.728 152.152 37.196 151.72 37.58C151.288 37.956 150.708 38.144 149.98 38.144ZM149.98 32.804C149.516 32.804 149.108 32.944 148.756 33.224C148.412 33.504 148.2 33.896 148.12 34.4H151.744C151.712 33.904 151.532 33.516 151.204 33.236C150.884 32.948 150.476 32.804 149.98 32.804ZM158.808 40.64V37.112C158.656 37.4 158.432 37.644 158.136 37.844C157.848 38.044 157.456 38.144 156.96 38.144C156.456 38.144 156.004 38.024 155.604 37.784C155.212 37.544 154.9 37.192 154.668 36.728C154.444 36.264 154.332 35.7 154.332 35.036C154.332 34.364 154.444 33.796 154.668 33.332C154.9 32.86 155.208 32.504 155.592 32.264C155.984 32.024 156.42 31.904 156.9 31.904C157.372 31.904 157.768 32.004 158.088 32.204C158.408 32.404 158.648 32.656 158.808 32.96H158.88L159 32.048H159.816V40.64H158.808ZM157.092 37.184C157.596 37.184 158.012 37.008 158.34 36.656C158.668 36.296 158.832 35.752 158.832 35.024C158.832 34.296 158.668 33.756 158.34 33.404C158.012 33.044 157.596 32.864 157.092 32.864C156.588 32.864 156.172 33.044 155.844 33.404C155.516 33.756 155.352 34.296 155.352 35.024C155.352 35.752 155.516 36.296 155.844 36.656C156.172 37.008 156.588 37.184 157.092 37.184ZM163.891 38.144C163.171 38.144 162.627 37.928 162.259 37.496C161.891 37.064 161.707 36.44 161.707 35.624V32.048H162.715V35.504C162.715 36.032 162.831 36.448 163.063 36.752C163.303 37.048 163.663 37.196 164.143 37.196C164.623 37.196 165.027 37.036 165.355 36.716C165.683 36.388 165.847 35.92 165.847 35.312V32.048H166.855V38H166.015L165.907 37.1H165.847C165.687 37.388 165.435 37.636 165.091 37.844C164.747 38.044 164.347 38.144 163.891 38.144ZM171.434 30.992C171.194 30.992 170.994 30.912 170.834 30.752C170.674 30.592 170.594 30.4 170.594 30.176C170.594 29.944 170.674 29.752 170.834 29.6C170.994 29.44 171.194 29.36 171.434 29.36C171.666 29.36 171.862 29.44 172.022 29.6C172.19 29.752 172.274 29.944 172.274 30.176C172.274 30.4 172.19 30.592 172.022 30.752C171.862 30.912 171.666 30.992 171.434 30.992ZM169.106 38V37.136H171.002V33.212C171.002 33.012 170.902 32.912 170.702 32.912H169.31V32.048H170.942C171.654 32.048 172.01 32.404 172.01 33.116V37.136H173.906V38H169.106ZM176.11 38V37.136H177.634V33.212C177.634 33.012 177.538 32.912 177.346 32.912H176.266V32.048H177.718C177.982 32.048 178.194 32.12 178.354 32.264C178.514 32.408 178.594 32.62 178.594 32.9V33.152H178.642C178.738 32.752 178.918 32.444 179.182 32.228C179.454 32.012 179.83 31.904 180.31 31.904H181.402V32.972H180.166C179.678 32.972 179.302 33.136 179.038 33.464C178.774 33.784 178.642 34.196 178.642 34.7V37.136H180.514V38H176.11ZM185.957 38.144C185.397 38.144 184.901 38.016 184.469 37.76C184.045 37.496 183.709 37.132 183.461 36.668C183.213 36.196 183.089 35.648 183.089 35.024C183.089 34.4 183.209 33.856 183.449 33.392C183.697 32.92 184.037 32.556 184.469 32.3C184.901 32.036 185.405 31.904 185.981 31.904C186.557 31.904 187.049 32.036 187.457 32.3C187.865 32.556 188.177 32.896 188.393 33.32C188.609 33.744 188.717 34.2 188.717 34.688C188.717 34.776 188.713 34.864 188.705 34.952C188.705 35.04 188.705 35.14 188.705 35.252H184.085C184.109 35.692 184.209 36.06 184.385 36.356C184.569 36.644 184.797 36.86 185.069 37.004C185.349 37.148 185.645 37.22 185.957 37.22C186.397 37.22 186.741 37.128 186.989 36.944C187.237 36.76 187.425 36.504 187.553 36.176H188.549C188.413 36.728 188.129 37.196 187.697 37.58C187.265 37.956 186.685 38.144 185.957 38.144ZM185.957 32.804C185.493 32.804 185.085 32.944 184.733 33.224C184.389 33.504 184.177 33.896 184.097 34.4H187.721C187.689 33.904 187.509 33.516 187.181 33.236C186.861 32.948 186.453 32.804 185.957 32.804Z" fill="#7D52F4"/>
<path d="M199.736 33.308V29.6H200.84V33.308H199.736ZM208.359 39.128C207.487 39.128 206.759 38.92 206.175 38.504C205.599 38.096 205.167 37.532 204.879 36.812C204.591 36.092 204.447 35.276 204.447 34.364C204.447 33.532 204.539 32.816 204.723 32.216C204.915 31.616 205.175 31.124 205.503 30.74C205.831 30.348 206.199 30.06 206.607 29.876C207.015 29.692 207.439 29.6 207.879 29.6C208.703 29.6 209.355 29.808 209.835 30.224C210.315 30.64 210.555 31.236 210.555 32.012V36.716H209.835L209.739 36.032H209.691C209.571 36.256 209.399 36.444 209.175 36.596C208.959 36.748 208.683 36.824 208.347 36.824C207.747 36.824 207.251 36.608 206.859 36.176C206.467 35.744 206.271 35.136 206.271 34.352C206.271 33.568 206.463 32.964 206.847 32.54C207.239 32.116 207.739 31.904 208.347 31.904C208.683 31.904 208.959 31.964 209.175 32.084C209.399 32.204 209.571 32.364 209.691 32.564V32.012C209.691 31.516 209.523 31.128 209.187 30.848C208.859 30.56 208.423 30.416 207.879 30.416C207.455 30.416 207.051 30.544 206.667 30.8C206.283 31.056 205.967 31.472 205.719 32.048C205.479 32.624 205.359 33.396 205.359 34.364C205.359 35.068 205.467 35.72 205.683 36.32C205.899 36.92 206.231 37.404 206.679 37.772C207.127 38.132 207.687 38.312 208.359 38.312H210.039V39.128H208.359ZM208.419 36.068C208.787 36.068 209.091 35.932 209.331 35.66C209.571 35.38 209.691 34.948 209.691 34.364C209.691 33.78 209.571 33.352 209.331 33.08C209.091 32.8 208.787 32.66 208.419 32.66C208.051 32.66 207.747 32.8 207.507 33.08C207.267 33.352 207.147 33.78 207.147 34.364C207.147 34.948 207.267 35.38 207.507 35.66C207.747 35.932 208.051 36.068 208.419 36.068ZM212.014 40.64V32.048H212.83L212.95 33.032H213.022C213.174 32.712 213.418 32.444 213.754 32.228C214.09 32.012 214.486 31.904 214.942 31.904C215.422 31.904 215.854 32.024 216.238 32.264C216.63 32.504 216.938 32.86 217.162 33.332C217.386 33.796 217.498 34.364 217.498 35.036C217.498 35.7 217.382 36.264 217.15 36.728C216.926 37.192 216.614 37.544 216.214 37.784C215.822 38.024 215.37 38.144 214.858 38.144C214.402 38.144 214.014 38.048 213.694 37.856C213.382 37.656 213.158 37.424 213.022 37.16V40.64H212.014ZM214.738 37.184C215.242 37.184 215.658 37.008 215.986 36.656C216.314 36.296 216.478 35.752 216.478 35.024C216.478 34.296 216.314 33.756 215.986 33.404C215.658 33.044 215.242 32.864 214.738 32.864C214.234 32.864 213.818 33.044 213.49 33.404C213.162 33.756 212.998 34.296 212.998 35.024C212.998 35.752 213.162 36.296 213.49 36.656C213.818 37.008 214.234 37.184 214.738 37.184ZM219.281 38V37.136H220.805V33.212C220.805 33.012 220.709 32.912 220.517 32.912H219.437V32.048H220.889C221.153 32.048 221.365 32.12 221.525 32.264C221.685 32.408 221.765 32.62 221.765 32.9V33.152H221.813C221.909 32.752 222.089 32.444 222.353 32.228C222.625 32.012 223.001 31.904 223.481 31.904H224.573V32.972H223.337C222.849 32.972 222.473 33.136 222.209 33.464C221.945 33.784 221.813 34.196 221.813 34.7V37.136H223.685V38H219.281ZM228.997 30.992C228.757 30.992 228.557 30.912 228.397 30.752C228.237 30.592 228.157 30.4 228.157 30.176C228.157 29.944 228.237 29.752 228.397 29.6C228.557 29.44 228.757 29.36 228.997 29.36C229.229 29.36 229.425 29.44 229.585 29.6C229.753 29.752 229.837 29.944 229.837 30.176C229.837 30.4 229.753 30.592 229.585 30.752C229.425 30.912 229.229 30.992 228.997 30.992ZM226.669 38V37.136H228.565V33.212C228.565 33.012 228.465 32.912 228.265 32.912H226.873V32.048H228.505C229.217 32.048 229.573 32.404 229.573 33.116V37.136H231.469V38H226.669ZM235.676 38L233.06 32.048H234.212L236.264 36.896L238.328 32.048H239.468L236.84 38H235.676ZM241.647 40.64L243.111 37.424H242.763L240.411 32.048H241.503L243.459 36.656L245.523 32.048H246.579L242.703 40.64H241.647ZM250.583 30.992C250.343 30.992 250.143 30.912 249.983 30.752C249.823 30.592 249.743 30.4 249.743 30.176C249.743 29.944 249.823 29.752 249.983 29.6C250.143 29.44 250.343 29.36 250.583 29.36C250.815 29.36 251.011 29.44 251.171 29.6C251.339 29.752 251.423 29.944 251.423 30.176C251.423 30.4 251.339 30.592 251.171 30.752C251.011 30.912 250.815 30.992 250.583 30.992ZM248.255 38V37.136H250.151V33.212C250.151 33.012 250.051 32.912 249.851 32.912H248.459V32.048H250.091C250.803 32.048 251.159 32.404 251.159 33.116V37.136H253.055V38H248.255ZM257.646 38.144C257.142 38.144 256.69 38.024 256.29 37.784C255.898 37.544 255.59 37.192 255.366 36.728C255.142 36.256 255.03 35.684 255.03 35.012C255.03 34.348 255.142 33.784 255.366 33.32C255.59 32.856 255.898 32.504 256.29 32.264C256.69 32.024 257.142 31.904 257.646 31.904C258.118 31.904 258.506 31.996 258.81 32.18C259.122 32.364 259.354 32.604 259.506 32.9V29.36H260.514V38H259.686L259.578 37.076H259.506C259.346 37.404 259.11 37.664 258.798 37.856C258.486 38.048 258.102 38.144 257.646 38.144ZM257.778 37.184C258.282 37.184 258.698 37.008 259.026 36.656C259.354 36.296 259.518 35.752 259.518 35.024C259.518 34.296 259.354 33.756 259.026 33.404C258.698 33.044 258.282 32.864 257.778 32.864C257.274 32.864 256.858 33.044 256.53 33.404C256.21 33.756 256.05 34.296 256.05 35.024C256.05 35.752 256.21 36.296 256.53 36.656C256.858 37.008 257.274 37.184 257.778 37.184ZM262.441 39.08L266.593 28.88H267.649L263.485 39.08H262.441ZM272.301 38.144C271.541 38.144 270.925 37.968 270.453 37.616C269.989 37.256 269.729 36.764 269.673 36.14H270.717C270.765 36.468 270.925 36.736 271.197 36.944C271.477 37.152 271.853 37.256 272.325 37.256C272.773 37.256 273.105 37.16 273.321 36.968C273.545 36.776 273.657 36.556 273.657 36.308C273.657 35.972 273.525 35.744 273.261 35.624C272.997 35.496 272.601 35.4 272.073 35.336C271.441 35.264 270.917 35.092 270.501 34.82C270.085 34.548 269.877 34.14 269.877 33.596C269.877 33.108 270.081 32.704 270.489 32.384C270.897 32.064 271.453 31.904 272.157 31.904C272.853 31.904 273.401 32.064 273.801 32.384C274.201 32.696 274.429 33.144 274.485 33.728H273.489C273.465 33.44 273.325 33.212 273.069 33.044C272.821 32.868 272.509 32.78 272.133 32.78C271.741 32.78 271.437 32.856 271.221 33.008C271.005 33.152 270.897 33.344 270.897 33.584C270.897 33.824 271.017 34.024 271.257 34.184C271.505 34.336 271.893 34.436 272.421 34.484C272.837 34.532 273.217 34.612 273.561 34.724C273.905 34.836 274.177 35.012 274.377 35.252C274.585 35.492 274.689 35.828 274.689 36.26C274.697 36.62 274.597 36.944 274.389 37.232C274.189 37.512 273.909 37.736 273.549 37.904C273.189 38.064 272.773 38.144 272.301 38.144ZM279.232 38.144C278.728 38.144 278.276 38.024 277.876 37.784C277.484 37.544 277.176 37.192 276.952 36.728C276.728 36.256 276.616 35.684 276.616 35.012C276.616 34.348 276.728 33.784 276.952 33.32C277.176 32.856 277.484 32.504 277.876 32.264C278.276 32.024 278.728 31.904 279.232 31.904C279.704 31.904 280.092 31.996 280.396 32.18C280.708 32.364 280.94 32.604 281.092 32.9V29.36H282.1V38H281.272L281.164 37.076H281.092C280.932 37.404 280.696 37.664 280.384 37.856C280.072 38.048 279.688 38.144 279.232 38.144ZM279.364 37.184C279.868 37.184 280.284 37.008 280.612 36.656C280.94 36.296 281.104 35.752 281.104 35.024C281.104 34.296 280.94 33.756 280.612 33.404C280.284 33.044 279.868 32.864 279.364 32.864C278.86 32.864 278.444 33.044 278.116 33.404C277.796 33.756 277.636 34.296 277.636 35.024C277.636 35.752 277.796 36.296 278.116 36.656C278.444 37.008 278.86 37.184 279.364 37.184ZM284.363 38V29.36H285.371V34.568L287.855 32.048H289.139L286.487 34.7V34.772L289.463 38H288.215L285.371 34.904V38H284.363ZM293.275 33.308V29.6H294.379V33.308H293.275ZM218.669 58L221.297 49.6H222.461L225.077 58H223.973L223.361 55.912H220.385L219.773 58H218.669ZM221.849 51.016L220.637 55.072H223.109L221.897 51.016H221.849ZM226.357 58V49.6H229.153C229.793 49.6 230.317 49.716 230.725 49.948C231.133 50.18 231.433 50.488 231.625 50.872C231.817 51.256 231.913 51.68 231.913 52.144C231.913 52.608 231.817 53.032 231.625 53.416C231.433 53.8 231.133 54.108 230.725 54.34C230.317 54.572 229.793 54.688 229.153 54.688H227.365V58H226.357ZM227.365 53.764H229.129C229.721 53.764 230.161 53.616 230.449 53.32C230.737 53.016 230.881 52.624 230.881 52.144C230.881 51.664 230.737 51.272 230.449 50.968C230.161 50.664 229.721 50.512 229.129 50.512H227.365V53.764ZM233.852 58V57.124H235.76V50.476H233.852V49.6H238.676V50.476H236.768V57.124H238.676V58H233.852ZM240.759 58.924V58H246.159V58.924H240.759ZM248.039 58V49.6H249.047V53.512L252.335 49.6H253.619L250.079 53.776V53.824L253.667 58H252.359L249.047 54.148V58H248.039ZM255.282 58V49.6H260.526V50.512H256.29V53.308H260.166V54.22H256.29V57.088H260.526V58H255.282ZM264.541 58V54.7L261.817 49.6H262.957L265.045 53.68L267.133 49.6H268.273L265.549 54.7V58H264.541Z" fill="#1FC16B"/>
<path d="M161.599 58V49.6H164.395C165.035 49.6 165.559 49.716 165.967 49.948C166.375 50.18 166.675 50.488 166.867 50.872C167.059 51.256 167.155 51.68 167.155 52.144C167.155 52.608 167.059 53.032 166.867 53.416C166.675 53.8 166.375 54.108 165.967 54.34C165.559 54.572 165.035 54.688 164.395 54.688H162.607V58H161.599ZM162.607 53.764H164.371C164.963 53.764 165.403 53.616 165.691 53.32C165.979 53.016 166.123 52.624 166.123 52.144C166.123 51.664 165.979 51.272 165.691 50.968C165.403 50.664 164.963 50.512 164.371 50.512H162.607V53.764ZM168.914 58V57.136H170.438V53.212C170.438 53.012 170.342 52.912 170.15 52.912H169.07V52.048H170.522C170.786 52.048 170.998 52.12 171.158 52.264C171.318 52.408 171.398 52.62 171.398 52.9V53.152H171.446C171.542 52.752 171.722 52.444 171.986 52.228C172.258 52.012 172.634 51.904 173.114 51.904H174.206V52.972H172.97C172.482 52.972 172.106 53.136 171.842 53.464C171.578 53.784 171.446 54.196 171.446 54.7V57.136H173.318V58H168.914ZM178.63 50.992C178.39 50.992 178.19 50.912 178.03 50.752C177.87 50.592 177.79 50.4 177.79 50.176C177.79 49.944 177.87 49.752 178.03 49.6C178.19 49.44 178.39 49.36 178.63 49.36C178.862 49.36 179.058 49.44 179.218 49.6C179.386 49.752 179.47 49.944 179.47 50.176C179.47 50.4 179.386 50.592 179.218 50.752C179.058 50.912 178.862 50.992 178.63 50.992ZM176.302 58V57.136H178.198V53.212C178.198 53.012 178.098 52.912 177.898 52.912H176.506V52.048H178.138C178.85 52.048 179.206 52.404 179.206 53.116V57.136H181.102V58H176.302ZM185.309 58L182.693 52.048H183.845L185.897 56.896L187.961 52.048H189.101L186.473 58H185.309ZM191.28 60.64L192.744 57.424H192.396L190.044 52.048H191.136L193.092 56.656L195.156 52.048H196.212L192.336 60.64H191.28ZM197.876 58V57.124H199.784V50.476H197.876V49.6H202.7V50.476H200.792V57.124H202.7V58H197.876ZM204.675 58V49.6H206.439C207.815 49.6 208.831 49.976 209.487 50.728C210.151 51.48 210.483 52.504 210.483 53.8C210.483 55.096 210.151 56.12 209.487 56.872C208.831 57.624 207.815 58 206.439 58H204.675ZM205.683 57.076H206.415C207.151 57.076 207.739 56.94 208.179 56.668C208.627 56.396 208.951 56.016 209.151 55.528C209.351 55.04 209.451 54.464 209.451 53.8C209.451 53.136 209.351 52.56 209.151 52.072C208.951 51.584 208.627 51.204 208.179 50.932C207.739 50.66 207.151 50.524 206.415 50.524H205.683V57.076Z" fill="#FA7319"/>
</svg>
