<svg width="18" height="9" viewBox="0 0 18 9" fill="none" xmlns="http://www.w3.org/2000/svg">
<path d="M1.83618 8.64062C1.27618 8.64062 0.828184 8.47662 0.492184 8.14862C0.164184 7.82062 0.000183627 7.38062 0.000183627 6.82862C0.000183627 6.24462 0.172184 5.79262 0.516184 5.47263C0.868184 5.14462 1.38418 4.98062 2.06418 4.98062H2.77218V3.66062H2.06418C1.38418 3.66062 0.868184 3.50062 0.516184 3.18062C0.172184 2.85262 0.000183627 2.39662 0.000183627 1.81262C0.000183627 1.26062 0.164184 0.820625 0.492184 0.492625C0.828184 0.164625 1.27618 0.000624657 1.83618 0.000624657C2.28418 0.000624657 2.63618 0.0846245 2.89218 0.252624C3.15618 0.420624 3.34018 0.644625 3.44418 0.924625C3.55618 1.20462 3.61218 1.51262 3.61218 1.84862V2.84462H4.93218V1.84862C4.93218 1.51262 4.98418 1.20462 5.08818 0.924625C5.20018 0.644625 5.38418 0.420624 5.64018 0.252624C5.90418 0.0846245 6.26018 0.000624657 6.70818 0.000624657C7.26818 0.000624657 7.71218 0.164625 8.04018 0.492625C8.37618 0.820625 8.54418 1.26062 8.54418 1.81262C8.54418 2.39662 8.37218 2.85262 8.02818 3.18062C7.68418 3.50062 7.16818 3.66062 6.48018 3.66062H5.77218V4.98062H6.48018C7.16818 4.98062 7.68418 5.14462 8.02818 5.47263C8.37218 5.79262 8.54418 6.24462 8.54418 6.82862C8.54418 7.38062 8.37618 7.82062 8.04018 8.14862C7.71218 8.47662 7.26818 8.64062 6.70818 8.64062C6.26018 8.64062 5.90418 8.55662 5.64018 8.38862C5.38418 8.22062 5.20018 7.99662 5.08818 7.71662C4.98418 7.43662 4.93218 7.12862 4.93218 6.79262V5.79662H3.61218V6.79262C3.61218 7.12862 3.55618 7.43662 3.44418 7.71662C3.34018 7.99662 3.15618 8.22062 2.89218 8.38862C2.63618 8.55662 2.28418 8.64062 1.83618 8.64062ZM5.77218 1.82462V2.84462H6.48018C6.90418 2.84462 7.21218 2.76062 7.40418 2.59262C7.59618 2.41662 7.69218 2.15662 7.69218 1.81262C7.69218 1.46062 7.59618 1.20862 7.40418 1.05662C7.22018 0.904625 6.98818 0.828625 6.70818 0.828625C6.39618 0.828625 6.16018 0.920625 6.00018 1.10462C5.84818 1.28062 5.77218 1.52062 5.77218 1.82462ZM2.06418 2.84462H2.77218V1.82462C2.77218 1.52062 2.69218 1.28062 2.53218 1.10462C2.38018 0.920625 2.14818 0.828625 1.83618 0.828625C1.55618 0.828625 1.32018 0.904625 1.12818 1.05662C0.944184 1.20862 0.852184 1.46062 0.852184 1.81262C0.852184 2.15662 0.948184 2.41662 1.14018 2.59262C1.33218 2.76062 1.64018 2.84462 2.06418 2.84462ZM3.61218 4.98062H4.93218V3.66062H3.61218V4.98062ZM1.83618 7.81262C2.14818 7.81262 2.38018 7.72462 2.53218 7.54862C2.69218 7.36462 2.77218 7.12062 2.77218 6.81662V5.79662H2.06418C1.64018 5.79662 1.33218 5.88462 1.14018 6.06062C0.948184 6.22862 0.852184 6.48462 0.852184 6.82862C0.852184 7.18062 0.944184 7.43262 1.12818 7.58462C1.32018 7.73662 1.55618 7.81262 1.83618 7.81262ZM5.77218 6.81662C5.77218 7.12062 5.84818 7.36462 6.00018 7.54862C6.16018 7.72462 6.39618 7.81262 6.70818 7.81262C6.98818 7.81262 7.22018 7.73662 7.40418 7.58462C7.59618 7.43262 7.69218 7.18062 7.69218 6.82862C7.69218 6.48462 7.59618 6.22862 7.40418 6.06062C7.21218 5.88462 6.90418 5.79662 6.48018 5.79662H5.77218V6.81662ZM17.1056 8.64062H15.1376L12.0416 4.74062V8.64062H10.4216V0.240624H12.0416V4.24862L14.9336 0.240624H16.7936L13.6616 4.38062L17.1056 8.64062Z" fill="#99A0AE"/>
</svg>
