<svg width="680" height="76" viewBox="0 0 680 76" fill="none" xmlns="http://www.w3.org/2000/svg">
<rect width="680" height="76" fill="white"/>
<path d="M25.056 38V32.048H25.896L26.004 32.948H26.064C26.224 32.66 26.476 32.416 26.82 32.216C27.164 32.008 27.56 31.904 28.008 31.904C28.736 31.904 29.28 32.12 29.64 32.552C30.008 32.984 30.192 33.608 30.192 34.424V38H29.184V34.544C29.184 34.016 29.068 33.604 28.836 33.308C28.604 33.004 28.244 32.852 27.756 32.852C27.284 32.852 26.884 33.016 26.556 33.344C26.228 33.664 26.064 34.128 26.064 34.736V38H25.056ZM32.1313 40.64V32.048H32.9473L33.0673 33.032H33.1393C33.2913 32.712 33.5353 32.444 33.8713 32.228C34.2073 32.012 34.6033 31.904 35.0593 31.904C35.5393 31.904 35.9713 32.024 36.3553 32.264C36.7473 32.504 37.0553 32.86 37.2793 33.332C37.5033 33.796 37.6153 34.364 37.6153 35.036C37.6153 35.7 37.4993 36.264 37.2673 36.728C37.0433 37.192 36.7313 37.544 36.3313 37.784C35.9393 38.024 35.4873 38.144 34.9753 38.144C34.5193 38.144 34.1313 38.048 33.8113 37.856C33.4993 37.656 33.2753 37.424 33.1393 37.16V40.64H32.1313ZM34.8553 37.184C35.3593 37.184 35.7753 37.008 36.1033 36.656C36.4313 36.296 36.5953 35.752 36.5953 35.024C36.5953 34.296 36.4313 33.756 36.1033 33.404C35.7753 33.044 35.3593 32.864 34.8553 32.864C34.3513 32.864 33.9353 33.044 33.6073 33.404C33.2793 33.756 33.1153 34.296 33.1153 35.024C33.1153 35.752 33.2793 36.296 33.6073 36.656C33.9353 37.008 34.3513 37.184 34.8553 37.184ZM38.8346 38V32.048H39.6626L39.7706 32.744H39.8306C39.9346 32.504 40.0906 32.304 40.2986 32.144C40.5146 31.984 40.7746 31.904 41.0786 31.904C41.3826 31.904 41.6386 31.98 41.8466 32.132C42.0626 32.276 42.2186 32.48 42.3146 32.744H42.3626C42.4666 32.504 42.6346 32.304 42.8666 32.144C43.0986 31.984 43.3786 31.904 43.7066 31.904C44.1626 31.904 44.5026 32.06 44.7266 32.372C44.9586 32.676 45.0746 33.084 45.0746 33.596V38H44.0906V33.752C44.0906 33.464 44.0306 33.236 43.9106 33.068C43.7986 32.9 43.6146 32.816 43.3586 32.816C43.0946 32.816 42.8786 32.916 42.7106 33.116C42.5426 33.316 42.4586 33.6 42.4586 33.968V38H41.4626V33.752C41.4626 33.464 41.4066 33.236 41.2946 33.068C41.1826 32.9 40.9986 32.816 40.7426 32.816C40.4786 32.816 40.2586 32.916 40.0826 33.116C39.9146 33.316 39.8306 33.6 39.8306 33.968V38H38.8346Z" fill="#FB4BA3"/>
<path d="M56.3092 30.992C56.0692 30.992 55.8693 30.912 55.7093 30.752C55.5493 30.592 55.4693 30.4 55.4693 30.176C55.4693 29.944 55.5493 29.752 55.7093 29.6C55.8693 29.44 56.0692 29.36 56.3092 29.36C56.5413 29.36 56.7373 29.44 56.8973 29.6C57.0653 29.752 57.1493 29.944 57.1493 30.176C57.1493 30.4 57.0653 30.592 56.8973 30.752C56.7373 30.912 56.5413 30.992 56.3092 30.992ZM53.9813 38V37.136H55.8773V33.212C55.8773 33.012 55.7773 32.912 55.5773 32.912H54.1853V32.048H55.8173C56.5293 32.048 56.8853 32.404 56.8853 33.116V37.136H58.7812V38H53.9813ZM61.0326 38V32.048H61.8726L61.9806 32.948H62.0406C62.2006 32.66 62.4526 32.416 62.7966 32.216C63.1406 32.008 63.5366 31.904 63.9846 31.904C64.7126 31.904 65.2566 32.12 65.6166 32.552C65.9846 32.984 66.1686 33.608 66.1686 34.424V38H65.1606V34.544C65.1606 34.016 65.0446 33.604 64.8126 33.308C64.5806 33.004 64.2206 32.852 63.7326 32.852C63.2606 32.852 62.8606 33.016 62.5326 33.344C62.2046 33.664 62.0406 34.128 62.0406 34.736V38H61.0326ZM70.8319 38.144C70.0719 38.144 69.4559 37.968 68.9839 37.616C68.5199 37.256 68.2599 36.764 68.2039 36.14H69.2479C69.2959 36.468 69.4559 36.736 69.7279 36.944C70.0079 37.152 70.3839 37.256 70.8559 37.256C71.3039 37.256 71.6359 37.16 71.8519 36.968C72.0759 36.776 72.1879 36.556 72.1879 36.308C72.1879 35.972 72.0559 35.744 71.7919 35.624C71.5279 35.496 71.1319 35.4 70.6039 35.336C69.9719 35.264 69.4479 35.092 69.0319 34.82C68.6159 34.548 68.4079 34.14 68.4079 33.596C68.4079 33.108 68.6119 32.704 69.0199 32.384C69.4279 32.064 69.9839 31.904 70.6879 31.904C71.3839 31.904 71.9319 32.064 72.3319 32.384C72.7319 32.696 72.9599 33.144 73.0159 33.728H72.0199C71.9959 33.44 71.8559 33.212 71.5999 33.044C71.3519 32.868 71.0399 32.78 70.6639 32.78C70.2719 32.78 69.9679 32.856 69.7519 33.008C69.5359 33.152 69.4279 33.344 69.4279 33.584C69.4279 33.824 69.5479 34.024 69.7879 34.184C70.0359 34.336 70.4239 34.436 70.9519 34.484C71.3679 34.532 71.7479 34.612 72.0919 34.724C72.4359 34.836 72.7079 35.012 72.9079 35.252C73.1159 35.492 73.2199 35.828 73.2199 36.26C73.2279 36.62 73.1279 36.944 72.9199 37.232C72.7199 37.512 72.4399 37.736 72.0799 37.904C71.7199 38.064 71.3039 38.144 70.8319 38.144ZM78.5912 38C78.0472 38 77.6192 37.868 77.3072 37.604C76.9952 37.34 76.8392 36.864 76.8392 36.176V32.912H75.3272V32.048H76.2272C76.6352 32.048 76.8712 31.848 76.9352 31.448L77.1032 30.524H77.8472V32.048H80.2232V32.912H77.8472V36.176C77.8472 36.512 77.9232 36.748 78.0752 36.884C78.2352 37.02 78.5072 37.088 78.8912 37.088H80.2232V38H78.5912ZM84.6585 38.144C84.1865 38.144 83.7945 38.06 83.4825 37.892C83.1705 37.724 82.9385 37.504 82.7865 37.232C82.6345 36.952 82.5585 36.648 82.5585 36.32C82.5585 35.712 82.7785 35.252 83.2185 34.94C83.6665 34.62 84.2625 34.46 85.0065 34.46H86.6385V34.34C86.6385 33.3 86.1625 32.78 85.2105 32.78C84.8265 32.78 84.5025 32.864 84.2385 33.032C83.9825 33.2 83.8185 33.464 83.7465 33.824H82.7145C82.7545 33.424 82.8865 33.08 83.1105 32.792C83.3425 32.504 83.6385 32.284 83.9985 32.132C84.3585 31.98 84.7625 31.904 85.2105 31.904C86.0585 31.904 86.6745 32.128 87.0585 32.576C87.4505 33.016 87.6465 33.604 87.6465 34.34V38H86.7825L86.6985 37.076H86.6145C86.4385 37.364 86.2025 37.616 85.9065 37.832C85.6185 38.04 85.2025 38.144 84.6585 38.144ZM84.8385 37.256C85.2225 37.256 85.5465 37.164 85.8105 36.98C86.0825 36.796 86.2865 36.552 86.4225 36.248C86.5665 35.944 86.6385 35.612 86.6385 35.252H85.0905C84.5465 35.252 84.1625 35.344 83.9385 35.528C83.7225 35.712 83.6145 35.956 83.6145 36.26C83.6145 36.572 83.7185 36.816 83.9265 36.992C84.1345 37.168 84.4385 37.256 84.8385 37.256ZM89.6578 38V37.136H91.6858V30.524C91.6858 30.324 91.5858 30.224 91.3858 30.224H89.8738V29.36H91.6258C91.9698 29.36 92.2338 29.452 92.4178 29.636C92.6018 29.82 92.6938 30.084 92.6938 30.428V37.136H94.7218V38H89.6578ZM96.8531 38V37.136H98.8811V30.524C98.8811 30.324 98.7811 30.224 98.5811 30.224H97.0691V29.36H98.8211C99.1651 29.36 99.4291 29.452 99.6131 29.636C99.7971 29.82 99.8891 30.084 99.8891 30.428V37.136H101.917V38H96.8531ZM114.82 39.128C113.948 39.128 113.22 38.92 112.636 38.504C112.06 38.096 111.628 37.532 111.34 36.812C111.052 36.092 110.908 35.276 110.908 34.364C110.908 33.532 111 32.816 111.184 32.216C111.376 31.616 111.636 31.124 111.964 30.74C112.292 30.348 112.66 30.06 113.068 29.876C113.476 29.692 113.9 29.6 114.34 29.6C115.164 29.6 115.816 29.808 116.296 30.224C116.776 30.64 117.016 31.236 117.016 32.012V36.716H116.296L116.2 36.032H116.152C116.032 36.256 115.86 36.444 115.636 36.596C115.42 36.748 115.144 36.824 114.808 36.824C114.208 36.824 113.712 36.608 113.32 36.176C112.928 35.744 112.732 35.136 112.732 34.352C112.732 33.568 112.924 32.964 113.308 32.54C113.7 32.116 114.2 31.904 114.808 31.904C115.144 31.904 115.42 31.964 115.636 32.084C115.86 32.204 116.032 32.364 116.152 32.564V32.012C116.152 31.516 115.984 31.128 115.648 30.848C115.32 30.56 114.884 30.416 114.34 30.416C113.916 30.416 113.512 30.544 113.128 30.8C112.744 31.056 112.428 31.472 112.18 32.048C111.94 32.624 111.82 33.396 111.82 34.364C111.82 35.068 111.928 35.72 112.144 36.32C112.36 36.92 112.692 37.404 113.14 37.772C113.588 38.132 114.148 38.312 114.82 38.312H116.5V39.128H114.82ZM114.88 36.068C115.248 36.068 115.552 35.932 115.792 35.66C116.032 35.38 116.152 34.948 116.152 34.364C116.152 33.78 116.032 33.352 115.792 33.08C115.552 32.8 115.248 32.66 114.88 32.66C114.512 32.66 114.208 32.8 113.968 33.08C113.728 33.352 113.608 33.78 113.608 34.364C113.608 34.948 113.728 35.38 113.968 35.66C114.208 35.932 114.512 36.068 114.88 36.068ZM118.475 40.64V32.048H119.291L119.411 33.032H119.483C119.635 32.712 119.879 32.444 120.215 32.228C120.551 32.012 120.947 31.904 121.403 31.904C121.883 31.904 122.315 32.024 122.699 32.264C123.091 32.504 123.399 32.86 123.623 33.332C123.847 33.796 123.959 34.364 123.959 35.036C123.959 35.7 123.843 36.264 123.611 36.728C123.387 37.192 123.075 37.544 122.675 37.784C122.283 38.024 121.831 38.144 121.319 38.144C120.863 38.144 120.475 38.048 120.155 37.856C119.843 37.656 119.619 37.424 119.483 37.16V40.64H118.475ZM121.199 37.184C121.703 37.184 122.119 37.008 122.447 36.656C122.775 36.296 122.939 35.752 122.939 35.024C122.939 34.296 122.775 33.756 122.447 33.404C122.119 33.044 121.703 32.864 121.199 32.864C120.695 32.864 120.279 33.044 119.951 33.404C119.623 33.756 119.459 34.296 119.459 35.024C119.459 35.752 119.623 36.296 119.951 36.656C120.279 37.008 120.695 37.184 121.199 37.184ZM125.742 38V37.136H127.266V33.212C127.266 33.012 127.17 32.912 126.978 32.912H125.898V32.048H127.35C127.614 32.048 127.826 32.12 127.986 32.264C128.146 32.408 128.226 32.62 128.226 32.9V33.152H128.274C128.37 32.752 128.55 32.444 128.814 32.228C129.086 32.012 129.462 31.904 129.942 31.904H131.034V32.972H129.798C129.31 32.972 128.934 33.136 128.67 33.464C128.406 33.784 128.274 34.196 128.274 34.7V37.136H130.146V38H125.742ZM135.458 30.992C135.218 30.992 135.018 30.912 134.858 30.752C134.698 30.592 134.618 30.4 134.618 30.176C134.618 29.944 134.698 29.752 134.858 29.6C135.018 29.44 135.218 29.36 135.458 29.36C135.69 29.36 135.886 29.44 136.046 29.6C136.214 29.752 136.298 29.944 136.298 30.176C136.298 30.4 136.214 30.592 136.046 30.752C135.886 30.912 135.69 30.992 135.458 30.992ZM133.13 38V37.136H135.026V33.212C135.026 33.012 134.926 32.912 134.726 32.912H133.334V32.048H134.966C135.678 32.048 136.034 32.404 136.034 33.116V37.136H137.93V38H133.13ZM142.137 38L139.521 32.048H140.673L142.725 36.896L144.789 32.048H145.929L143.301 38H142.137ZM148.108 40.64L149.572 37.424H149.224L146.872 32.048H147.964L149.92 36.656L151.984 32.048H153.04L149.164 40.64H148.108ZM157.044 30.992C156.804 30.992 156.604 30.912 156.444 30.752C156.284 30.592 156.204 30.4 156.204 30.176C156.204 29.944 156.284 29.752 156.444 29.6C156.604 29.44 156.804 29.36 157.044 29.36C157.276 29.36 157.472 29.44 157.632 29.6C157.8 29.752 157.884 29.944 157.884 30.176C157.884 30.4 157.8 30.592 157.632 30.752C157.472 30.912 157.276 30.992 157.044 30.992ZM154.716 38V37.136H156.612V33.212C156.612 33.012 156.512 32.912 156.312 32.912H154.92V32.048H156.552C157.264 32.048 157.62 32.404 157.62 33.116V37.136H159.516V38H154.716ZM164.107 38.144C163.603 38.144 163.151 38.024 162.751 37.784C162.359 37.544 162.051 37.192 161.827 36.728C161.603 36.256 161.491 35.684 161.491 35.012C161.491 34.348 161.603 33.784 161.827 33.32C162.051 32.856 162.359 32.504 162.751 32.264C163.151 32.024 163.603 31.904 164.107 31.904C164.579 31.904 164.967 31.996 165.271 32.18C165.583 32.364 165.815 32.604 165.967 32.9V29.36H166.975V38H166.147L166.039 37.076H165.967C165.807 37.404 165.571 37.664 165.259 37.856C164.947 38.048 164.563 38.144 164.107 38.144ZM164.239 37.184C164.743 37.184 165.159 37.008 165.487 36.656C165.815 36.296 165.979 35.752 165.979 35.024C165.979 34.296 165.815 33.756 165.487 33.404C165.159 33.044 164.743 32.864 164.239 32.864C163.735 32.864 163.319 33.044 162.991 33.404C162.671 33.756 162.511 34.296 162.511 35.024C162.511 35.752 162.671 36.296 162.991 36.656C163.319 37.008 163.735 37.184 164.239 37.184ZM168.902 39.08L173.054 28.88H174.11L169.946 39.08H168.902ZM178.762 38.144C178.002 38.144 177.386 37.968 176.914 37.616C176.45 37.256 176.19 36.764 176.134 36.14H177.178C177.226 36.468 177.386 36.736 177.658 36.944C177.938 37.152 178.314 37.256 178.786 37.256C179.234 37.256 179.566 37.16 179.782 36.968C180.006 36.776 180.118 36.556 180.118 36.308C180.118 35.972 179.986 35.744 179.722 35.624C179.458 35.496 179.062 35.4 178.534 35.336C177.902 35.264 177.378 35.092 176.962 34.82C176.546 34.548 176.338 34.14 176.338 33.596C176.338 33.108 176.542 32.704 176.95 32.384C177.358 32.064 177.914 31.904 178.618 31.904C179.314 31.904 179.862 32.064 180.262 32.384C180.662 32.696 180.89 33.144 180.946 33.728H179.95C179.926 33.44 179.786 33.212 179.53 33.044C179.282 32.868 178.97 32.78 178.594 32.78C178.202 32.78 177.898 32.856 177.682 33.008C177.466 33.152 177.358 33.344 177.358 33.584C177.358 33.824 177.478 34.024 177.718 34.184C177.966 34.336 178.354 34.436 178.882 34.484C179.298 34.532 179.678 34.612 180.022 34.724C180.366 34.836 180.638 35.012 180.838 35.252C181.046 35.492 181.15 35.828 181.15 36.26C181.158 36.62 181.058 36.944 180.85 37.232C180.65 37.512 180.37 37.736 180.01 37.904C179.65 38.064 179.234 38.144 178.762 38.144ZM185.693 38.144C185.189 38.144 184.737 38.024 184.337 37.784C183.945 37.544 183.637 37.192 183.413 36.728C183.189 36.256 183.077 35.684 183.077 35.012C183.077 34.348 183.189 33.784 183.413 33.32C183.637 32.856 183.945 32.504 184.337 32.264C184.737 32.024 185.189 31.904 185.693 31.904C186.165 31.904 186.553 31.996 186.857 32.18C187.169 32.364 187.401 32.604 187.553 32.9V29.36H188.561V38H187.733L187.625 37.076H187.553C187.393 37.404 187.157 37.664 186.845 37.856C186.533 38.048 186.149 38.144 185.693 38.144ZM185.825 37.184C186.329 37.184 186.745 37.008 187.073 36.656C187.401 36.296 187.565 35.752 187.565 35.024C187.565 34.296 187.401 33.756 187.073 33.404C186.745 33.044 186.329 32.864 185.825 32.864C185.321 32.864 184.905 33.044 184.577 33.404C184.257 33.756 184.097 34.296 184.097 35.024C184.097 35.752 184.257 36.296 184.577 36.656C184.905 37.008 185.321 37.184 185.825 37.184ZM190.824 38V29.36H191.832V34.568L194.316 32.048H195.6L192.948 34.7V34.772L195.924 38H194.676L191.832 34.904V38H190.824Z" fill="#7D52F4"/>
<path d="M638.25 33.5V31.25C638.25 31.0511 638.329 30.8603 638.47 30.7197C638.61 30.579 638.801 30.5 639 30.5H648C648.199 30.5 648.39 30.579 648.53 30.7197C648.671 30.8603 648.75 31.0511 648.75 31.25V41.75C648.75 41.9489 648.671 42.1397 648.53 42.2803C648.39 42.421 648.199 42.5 648 42.5H645.75V44.75C645.75 45.164 645.413 45.5 644.995 45.5H636.005C635.906 45.5006 635.808 45.4816 635.717 45.4442C635.625 45.4068 635.542 45.3517 635.472 45.282C635.402 45.2123 635.346 45.1294 635.308 45.0381C635.27 44.9468 635.25 44.8489 635.25 44.75L635.252 34.25C635.252 33.836 635.59 33.5 636.008 33.5H638.25ZM636.752 35L636.75 44H644.25V35H636.752ZM639.75 33.5H645.75V41H647.25V32H639.75V33.5Z" fill="#A4A4A4"/>
</svg>
