<svg width="28" height="28" viewBox="0 0 28 28" fill="none" xmlns="http://www.w3.org/2000/svg">
<path d="M6.6498 15.0499C6.6498 9.70754 9.69795 5.14214 13.9998 3.30884C18.3016 5.14214 21.3498 9.70754 21.3498 15.0499C21.3498 15.9141 21.27 16.7572 21.1188 17.5731L23.1558 19.4967C23.24 19.5764 23.2955 19.6817 23.3135 19.7963C23.3316 19.9108 23.3112 20.0281 23.2555 20.1298L20.6358 24.9336C20.5967 25.0053 20.5415 25.0669 20.4744 25.1135C20.4073 25.1602 20.3303 25.1905 20.2495 25.2021C20.1686 25.2137 20.0862 25.2063 20.0087 25.1805C19.9312 25.1547 19.8608 25.1111 19.8031 25.0533L17.4574 22.7076C17.2606 22.5107 16.9936 22.4 16.7151 22.3999H11.2845C11.006 22.4 10.739 22.5107 10.5421 22.7076L8.19645 25.0533C8.13875 25.1111 8.06837 25.1547 7.99089 25.1805C7.91341 25.2063 7.83097 25.2137 7.75012 25.2021C7.66928 25.1905 7.59226 25.1602 7.5252 25.1135C7.45813 25.0669 7.40287 25.0053 7.3638 24.9336L4.74405 20.1298C4.68842 20.0281 4.66804 19.9108 4.68608 19.7963C4.70413 19.6817 4.75959 19.5764 4.8438 19.4967L6.8808 17.5731C6.73065 16.7572 6.6498 15.9141 6.6498 15.0499ZM8.1996 22.0807L9.05745 21.2229C9.64805 20.6321 10.4491 20.3001 11.2845 20.2999H16.7151C17.5505 20.3001 18.3515 20.6321 18.9421 21.2229L19.8 22.0807L20.8311 20.1907L19.6761 19.0987C19.4208 18.8577 19.2301 18.5564 19.1213 18.2226C19.0125 17.8887 18.9892 17.5329 19.0534 17.1877C19.1836 16.4905 19.2498 15.7755 19.2498 15.0499C19.2498 10.9864 17.155 7.38494 13.9998 5.64194C10.8445 7.38494 8.7498 10.9864 8.7498 15.0499C8.7498 15.7755 8.81595 16.4905 8.94615 17.1888C9.01039 17.534 8.98706 17.8898 8.87829 18.2236C8.76951 18.5575 8.57877 18.8587 8.3235 19.0998L7.1685 20.1907L8.1996 22.0807V22.0807ZM13.9998 15.0499C13.4428 15.0499 12.9087 14.8287 12.5149 14.4349C12.121 14.041 11.8998 13.5069 11.8998 12.9499C11.8998 12.393 12.121 11.8588 12.5149 11.465C12.9087 11.0712 13.4428 10.8499 13.9998 10.8499C14.5568 10.8499 15.0909 11.0712 15.4847 11.465C15.8785 11.8588 16.0998 12.393 16.0998 12.9499C16.0998 13.5069 15.8785 14.041 15.4847 14.4349C15.0909 14.8287 14.5568 15.0499 13.9998 15.0499Z" fill="#7D52F4"/>
</svg>
