<svg width="488" height="198" viewBox="0 0 488 198" fill="none" xmlns="http://www.w3.org/2000/svg">
<g clip-path="url(#clip0_361_8523)">
<path d="M0 16C0 7.16345 7.16344 0 16 0H472C480.837 0 488 7.16344 488 16V198H0V16Z" fill="#F9FBFE"/>
<path d="M55.596 33.8352C59.5758 32.5785 61.7834 28.3336 60.5268 24.3538C59.2702 20.374 55.0252 18.1664 51.0454 19.423C47.0656 20.6797 44.8581 24.9246 46.1147 28.9044C47.3713 32.8842 51.6163 35.0918 55.596 33.8352Z" fill="#FF5073"/>
<path d="M256.596 194.835C260.576 193.578 262.783 189.333 261.527 185.354C260.27 181.374 256.025 179.166 252.045 180.423C248.066 181.68 245.858 185.925 247.115 189.904C248.371 193.884 252.616 196.092 256.596 194.835Z" fill="#FF5073"/>
<path d="M60.5273 24.354C59.2705 20.3744 55.0256 18.1668 51.0458 19.4233C50.8701 19.4789 50.699 19.5422 50.5304 19.6092C52.5641 20.4201 54.231 22.1035 54.9416 24.3542C56.1428 28.1584 54.1776 32.2024 50.5264 33.6499C52.0886 34.2729 53.8674 34.3816 55.5967 33.8357C59.5762 32.5789 61.7838 28.3338 60.5273 24.354Z" fill="#EB3D60"/>
<path d="M261.527 185.354C260.271 181.374 256.026 179.166 252.046 180.423C251.87 180.479 251.699 180.542 251.53 180.609C253.564 181.42 255.231 183.103 255.942 185.354C257.143 189.158 255.178 193.202 251.526 194.649C253.089 195.273 254.867 195.381 256.597 194.835C260.576 193.579 262.784 189.333 261.527 185.354Z" fill="#EB3D60"/>
<path d="M29.8856 203.03C30.6711 198.931 27.9851 194.972 23.8864 194.187C19.7876 193.401 15.8282 196.087 15.0428 200.186C14.2573 204.284 16.9433 208.244 21.042 209.029C25.1408 209.815 29.1002 207.129 29.8856 203.03Z" fill="#FF5073"/>
<path d="M23.89 194.187C22.4205 193.905 20.9697 194.072 19.6759 194.588C22.9813 195.899 24.9975 199.41 24.3036 203.031C23.7996 205.66 21.9888 207.706 19.6738 208.63C20.11 208.802 20.5678 208.939 21.0454 209.03C25.1443 209.816 29.1038 207.13 29.8893 203.031C30.6749 198.932 27.9889 194.972 23.89 194.187Z" fill="#EB3D60"/>
<path d="M58.8876 150L65.3071 157.914L75.466 157.113L69.9227 165.664L73.8243 175.078L63.979 172.448L56.2314 179.068L55.6898 168.892L47 163.569L56.5107 159.909L58.8876 150Z" fill="#FFB429"/>
<path d="M75.4664 157.113L69.5796 157.577L64.3374 165.664L67.5438 173.4L73.8247 175.078L69.9231 165.664L75.4664 157.113Z" fill="#F5A40C"/>
<path d="M121.957 26.27L120.9 36.4055L128.65 43.0223L118.684 45.1492L114.786 54.5646L109.684 45.7435L99.5244 44.9458L106.337 37.3675L103.956 27.459L113.269 31.5962L121.957 26.27Z" fill="#FFB429"/>
<path d="M322.957 187.27L321.9 197.405L329.65 204.022L319.684 206.149L315.786 215.564L310.684 206.743L300.524 205.946L307.337 198.367L304.956 188.459L314.269 192.596L322.957 187.27Z" fill="#FFB429"/>
<path d="M115.702 30.1049L114.806 38.6906L121.634 44.5195L128.65 43.0223L120.9 36.4055L121.957 26.27L115.702 30.1049Z" fill="#F5A40C"/>
<path d="M316.702 191.105L315.806 199.69L322.634 205.519L329.65 204.022L321.9 197.405L322.957 187.27L316.702 191.105Z" fill="#F5A40C"/>
<path d="M101.913 79.2076C103.838 75.5049 102.398 70.9423 98.6952 69.0167C94.9925 67.091 90.4299 68.5316 88.5042 72.2343C86.5786 75.937 88.0192 80.4996 91.7219 82.4253C95.4245 84.3509 99.9872 82.9103 101.913 79.2076Z" fill="#FF5073"/>
<path d="M98.694 69.0158C96.6682 67.9624 94.3857 67.9185 92.4177 68.6995C92.6505 68.7926 92.8811 68.8978 93.1083 69.0158C96.8111 70.9414 98.2517 75.5041 96.3262 79.2067C95.454 80.8834 94.0406 82.0945 92.4116 82.7409C95.9738 84.1645 100.104 82.6822 101.912 79.2067C103.837 75.5039 102.397 70.9414 98.694 69.0158Z" fill="#EB3D60"/>
<path d="M140.077 182.2C142.003 178.497 140.562 173.934 136.86 172.009C133.157 170.083 128.594 171.524 126.669 175.226C124.743 178.929 126.184 183.492 129.886 185.417C133.589 187.343 138.152 185.902 140.077 182.2Z" fill="#FF5073"/>
<path d="M136.858 172.007C134.832 170.954 132.55 170.91 130.582 171.691C130.815 171.784 131.045 171.889 131.272 172.007C134.975 173.933 136.416 178.496 134.49 182.198C133.618 183.875 132.205 185.086 130.576 185.732C134.138 187.156 138.268 185.674 140.076 182.198C142.001 178.495 140.561 173.933 136.858 172.007Z" fill="#EB3D60"/>
<path d="M26.2125 163.582C24.5087 162.841 23.5972 162.388 23.1214 160.941C22.6453 159.494 23.1097 158.587 24.0417 156.98C25.0555 155.232 26.3169 153.056 25.2853 149.919C24.2537 146.782 21.9471 145.779 20.0937 144.974C18.3898 144.233 17.4783 143.78 17.0022 142.333C16.5262 140.885 16.9906 139.979 17.9226 138.371C18.9364 136.623 20.1978 134.448 19.1659 131.31C18.8374 130.311 17.7611 129.767 16.7623 130.096C15.7632 130.424 15.2196 131.501 15.5482 132.5C16.0242 133.947 15.5599 134.854 14.6278 136.461C13.614 138.209 12.3527 140.385 13.3845 143.522C14.4161 146.659 16.7227 147.662 18.5759 148.467C20.28 149.208 21.1915 149.661 21.6676 151.109C22.1436 152.556 21.6792 153.462 20.7472 155.069C19.7336 156.818 18.472 158.993 19.5039 162.131C20.5354 165.267 22.8418 166.27 24.6953 167.075C26.3992 167.815 27.3104 168.269 27.7864 169.716C28.2622 171.163 27.7979 172.069 26.8661 173.676C25.8523 175.424 24.5907 177.599 25.6222 180.736C25.8858 181.538 26.6307 182.046 27.4307 182.046C27.628 182.046 27.8283 182.015 28.0259 181.95C29.0249 181.622 29.5685 180.545 29.24 179.546C28.7642 178.099 29.2286 177.193 30.1604 175.586C31.1742 173.838 32.4358 171.663 31.4042 168.526C30.3726 165.389 28.066 164.387 26.2125 163.582Z" fill="#86DF75"/>
<path d="M85.5398 35.9292C84.5166 37.0583 83.4987 37.1007 81.6412 37.0865C79.6215 37.0692 77.1059 37.0476 74.8879 39.4942C72.6701 41.9412 72.9382 44.4416 73.1538 46.4509C73.3518 48.298 73.4077 49.3148 72.3845 50.4439C71.3613 51.5727 70.3416 51.6169 68.4862 51.6009C66.4641 51.5839 63.9508 51.5613 61.7331 54.0083C59.5153 56.4551 59.7839 58.9555 59.9995 60.9646C60.1977 62.8116 60.2536 63.828 59.2307 64.9568C58.208 66.0854 57.1904 66.1293 55.3331 66.1133C53.3119 66.0968 50.7978 66.0734 48.5803 68.52C47.8739 69.2992 47.9331 70.5037 48.7125 71.21C49.0771 71.5403 49.5346 71.7031 49.9906 71.7031C50.5094 71.7031 51.0263 71.4923 51.4023 71.0777C52.4252 69.9492 53.4413 69.906 55.2998 69.9212C57.3209 69.9375 59.8352 69.9611 62.0527 67.5143C64.2705 65.0675 64.0019 62.5671 63.7863 60.5581C63.588 58.711 63.5322 57.6946 64.5551 56.5658C65.578 55.4368 66.5936 55.3926 68.4534 55.4088C70.4721 55.4248 72.9887 55.4482 75.2068 53.0014C77.4248 50.5546 77.1564 48.054 76.9409 46.0447C76.7428 44.1976 76.687 43.1807 77.7102 42.0519C78.7336 40.9231 79.752 40.8774 81.6087 40.8946C83.6292 40.9129 86.1443 40.9335 88.3621 38.4869C89.0684 37.7077 89.0093 36.5033 88.2298 35.7972C87.4504 35.0906 86.2459 35.15 85.5398 35.9292Z" fill="#86DF75"/>
<path d="M286.54 196.929C285.517 198.058 284.499 198.1 282.641 198.086C280.621 198.069 278.106 198.047 275.888 200.494C273.67 202.941 273.938 205.441 274.154 207.451C274.352 209.298 274.408 210.315 273.384 211.444C272.361 212.572 271.342 212.617 269.486 212.601C267.464 212.584 264.951 212.561 262.733 215.008C260.515 217.455 260.784 219.955 260.999 221.964C261.198 223.811 261.254 224.828 260.231 225.957C259.208 227.085 258.19 227.129 256.333 227.113C254.312 227.097 251.798 227.073 249.58 229.52C248.874 230.299 248.933 231.503 249.713 232.21C250.077 232.54 250.535 232.703 250.991 232.703C251.509 232.703 252.026 232.492 252.402 232.077C253.425 230.949 254.441 230.906 256.3 230.921C258.321 230.937 260.835 230.961 263.053 228.514C265.27 226.067 265.002 223.567 264.786 221.558C264.588 219.711 264.532 218.694 265.555 217.566C266.578 216.437 267.594 216.392 269.453 216.409C271.472 216.425 273.989 216.448 276.207 214.001C278.425 211.554 278.156 209.054 277.941 207.044C277.743 205.197 277.687 204.18 278.71 203.052C279.734 201.923 280.752 201.877 282.609 201.894C284.629 201.913 287.144 201.933 289.362 199.487C290.068 198.708 290.009 197.503 289.23 196.797C288.45 196.09 287.246 196.15 286.54 196.929Z" fill="#86DF75"/>
<path d="M115.921 155.395C114.917 155.086 113.851 155.651 113.542 156.656C113.094 158.113 112.192 158.585 110.502 159.358C108.665 160.199 106.379 161.247 105.409 164.404C104.438 167.561 105.742 169.711 106.79 171.439C107.753 173.028 108.235 173.925 107.787 175.381C107.34 176.837 106.437 177.309 104.748 178.083C102.911 178.924 100.624 179.971 99.6542 183.128C98.6841 186.284 99.9879 188.435 101.036 190.162C101.999 191.751 102.481 192.648 102.033 194.104C101.586 195.56 100.684 196.031 98.9944 196.805C97.1572 197.646 94.8706 198.692 93.9005 201.849C93.5915 202.854 94.1559 203.919 95.1613 204.228C95.3477 204.286 95.5361 204.313 95.7214 204.313C96.5356 204.313 97.2892 203.787 97.5411 202.968C97.9884 201.512 98.8908 201.04 100.58 200.267C102.417 199.426 104.704 198.379 105.674 195.223C106.644 192.066 105.34 189.916 104.292 188.188C103.329 186.599 102.847 185.702 103.295 184.246C103.742 182.79 104.645 182.319 106.334 181.545C108.171 180.704 110.458 179.656 111.428 176.5C112.398 173.343 111.094 171.193 110.047 169.465C109.083 167.876 108.602 166.979 109.049 165.522C109.497 164.066 110.399 163.594 112.089 162.821C113.926 161.979 116.212 160.932 117.182 157.775C117.491 156.77 116.926 155.704 115.921 155.395Z" fill="#86DF75"/>
<path d="M429.919 21.2076C431.844 17.5049 430.404 12.9423 426.701 11.0167C422.998 9.09104 418.436 10.5316 416.51 14.2343C414.584 17.937 416.025 22.4996 419.728 24.4253C423.43 26.3509 427.993 24.9103 429.919 21.2076Z" fill="#FF5073"/>
<path d="M274.919 2.67759C276.844 -1.02509 275.404 -5.58773 271.701 -7.51336C267.998 -9.43899 263.436 -7.9984 261.51 -4.29572C259.584 -0.593045 261.025 3.9696 264.728 5.89522C268.43 7.82085 272.993 6.38026 274.919 2.67759Z" fill="#FF5073"/>
<path d="M426.699 11.0158C424.674 9.9624 422.391 9.91848 420.423 10.6995C420.656 10.7926 420.886 10.8978 421.114 11.0158C424.816 12.9414 426.257 17.5041 424.332 21.2067C423.459 22.8834 422.046 24.0945 420.417 24.7409C423.979 26.1645 428.11 24.6822 429.917 21.2067C431.843 17.5039 430.402 12.9414 426.699 11.0158Z" fill="#EB3D60"/>
<path d="M271.699 -7.51421C269.674 -8.56762 267.391 -8.61155 265.423 -7.83057C265.656 -7.73739 265.886 -7.63227 266.114 -7.51421C269.816 -5.58867 271.257 -1.02592 269.332 2.67664C268.459 4.35336 267.046 5.56444 265.417 6.21086C268.979 7.63445 273.11 6.15221 274.917 2.67664C276.843 -1.02617 275.402 -5.58867 271.699 -7.51421Z" fill="#EB3D60"/>
<path d="M468.078 60.1236C470.003 56.421 468.563 51.8583 464.86 49.9327C461.158 48.0071 456.595 49.4476 454.669 53.1503C452.744 56.853 454.184 61.4156 457.887 63.3413C461.59 65.2669 466.152 63.8263 468.078 60.1236Z" fill="#FF5073"/>
<path d="M450.261 203.889C452.187 200.186 450.746 195.623 447.044 193.698C443.341 191.772 438.778 193.213 436.853 196.915C434.927 200.618 436.368 205.181 440.071 207.106C443.773 209.032 448.336 207.591 450.261 203.889Z" fill="#FF5073"/>
<path d="M464.858 49.9313C462.832 48.8779 460.549 48.834 458.581 49.615C458.814 49.7082 459.045 49.8133 459.272 49.9313C462.975 51.8569 464.415 56.4196 462.49 60.1222C461.618 61.7989 460.204 63.01 458.575 63.6564C462.137 65.08 466.268 63.5978 468.075 60.1222C470.001 56.4194 468.56 51.8569 464.858 49.9313Z" fill="#EB3D60"/>
<path d="M447.041 193.696C445.015 192.643 442.733 192.599 440.765 193.38C440.998 193.473 441.228 193.578 441.455 193.696C445.158 195.622 446.599 200.185 444.673 203.887C443.801 205.564 442.388 206.775 440.759 207.422C444.321 208.845 448.452 207.363 450.259 203.887C452.185 200.185 450.744 195.622 447.041 193.696Z" fill="#EB3D60"/>
<path d="M354.213 41.5056C352.509 40.7655 351.597 40.3118 351.121 38.8649C350.645 37.4177 351.11 36.5113 352.042 34.9039C353.056 33.1558 354.317 30.9804 353.285 27.843C352.254 24.7056 349.947 23.7033 348.094 22.8979C346.39 22.1575 345.478 21.7038 345.002 20.2566C344.526 18.8092 344.991 17.9028 345.923 16.2954C346.936 14.547 348.198 12.3717 347.166 9.23402C346.837 8.23494 345.761 7.69135 344.762 8.01989C343.763 8.34843 343.22 9.42469 343.548 10.4238C344.024 11.8712 343.56 12.7776 342.628 14.385C341.614 16.1334 340.353 18.3087 341.384 21.4464C342.416 24.5835 344.723 25.5859 346.576 26.3912C348.28 27.1316 349.192 27.5853 349.668 29.0328C350.144 30.48 349.679 31.3864 348.747 32.9935C347.734 34.7419 346.472 36.9172 347.504 40.0546C348.535 43.1915 350.842 44.1939 352.695 44.999C354.399 45.7393 355.31 46.1928 355.786 47.6397C356.262 49.0867 355.798 49.9926 354.866 51.5998C353.852 53.3478 352.591 55.5229 353.622 58.6601C353.886 59.4616 354.631 59.9699 355.431 59.9699C355.628 59.9699 355.828 59.9392 356.026 59.8742C357.025 59.5457 357.569 58.4694 357.24 57.4703C356.764 56.0234 357.229 55.1175 358.16 53.5103C359.174 51.7622 360.436 49.5871 359.404 46.45C358.373 43.3129 356.066 42.3107 354.213 41.5056Z" fill="#86DF75"/>
<path d="M199.213 22.9756C197.509 22.2355 196.597 21.7818 196.121 20.3348C195.645 18.8876 196.11 17.9812 197.042 16.3738C198.056 14.6258 199.317 12.4504 198.285 9.31299C197.254 6.17561 194.947 5.17323 193.094 4.36787C191.39 3.62751 190.478 3.1738 190.002 1.7266C189.526 0.27914 189.991 -0.627264 190.923 -2.23468C191.936 -3.983 193.198 -6.15837 192.166 -9.29601C191.837 -10.2951 190.761 -10.8387 189.762 -10.5101C188.763 -10.1816 188.22 -9.10534 188.548 -8.10626C189.024 -6.6588 188.56 -5.7524 187.628 -4.14498C186.614 -2.39666 185.353 -0.221287 186.384 2.91635C187.416 6.05348 189.723 7.05586 191.576 7.86122C193.28 8.60157 194.192 9.05528 194.668 10.5027C195.144 11.9499 194.679 12.8564 193.747 14.4635C192.734 16.2118 191.472 18.3872 192.504 21.5246C193.535 24.6615 195.842 25.6639 197.695 26.469C199.399 27.2093 200.31 27.6628 200.786 29.1097C201.262 30.5567 200.798 31.4626 199.866 33.0697C198.852 34.8178 197.591 36.9929 198.622 40.13C198.886 40.9316 199.631 41.4399 200.431 41.4399C200.628 41.4399 200.828 41.4092 201.026 41.3442C202.025 41.0156 202.569 39.9394 202.24 38.9403C201.764 37.4933 202.229 36.5874 203.16 34.9803C204.174 33.2322 205.436 31.0571 204.404 27.92C203.373 24.7828 201.066 23.7807 199.213 22.9756Z" fill="#86DF75"/>
<path d="M413.564 -22.0708C412.541 -20.9417 411.523 -20.8993 409.665 -20.9135C407.645 -20.9308 405.13 -20.9524 402.912 -18.5058C400.694 -16.0588 400.962 -13.5584 401.178 -11.5491C401.376 -9.70203 401.432 -8.68517 400.408 -7.5561C399.385 -6.42728 398.366 -6.38311 396.51 -6.3991C394.488 -6.41611 391.975 -6.43871 389.757 -3.99166C387.539 -1.54488 387.808 0.955484 388.023 2.96456C388.222 4.81165 388.278 5.82799 387.255 6.95681C386.232 8.08537 385.214 8.1293 383.357 8.1133C381.336 8.0968 378.822 8.07344 376.604 10.52C375.898 11.2992 375.957 12.5037 376.736 13.21C377.101 13.5403 377.559 13.7031 378.015 13.7031C378.533 13.7031 379.05 13.4923 379.426 13.0777C380.449 11.9492 381.465 11.906 383.324 11.9212C385.345 11.9375 387.859 11.9611 390.077 9.5143C392.294 7.06751 392.026 4.56715 391.81 2.55807C391.612 0.710983 391.556 -0.305359 392.579 -1.43418C393.602 -2.56325 394.618 -2.60743 396.477 -2.59118C398.496 -2.57518 401.013 -2.55182 403.231 -4.99862C405.449 -7.4454 405.18 -9.94602 404.965 -11.9553C404.767 -13.8024 404.711 -14.8193 405.734 -15.9481C406.758 -17.0769 407.776 -17.1226 409.633 -17.1054C411.653 -17.0871 414.168 -17.0665 416.386 -19.5131C417.092 -20.2923 417.033 -21.4967 416.254 -22.2028C415.474 -22.9094 414.27 -22.85 413.564 -22.0708Z" fill="#86DF75"/>
<path d="M443.94 33.3195C442.935 33.0105 441.869 33.575 441.56 34.5804C441.113 36.037 440.21 36.5087 438.521 37.2823C436.684 38.1235 434.397 39.1708 433.427 42.3277C432.457 45.4847 433.76 47.6352 434.808 49.3632C435.772 50.9521 436.253 51.8488 435.806 53.3052C435.358 54.7613 434.456 55.233 432.767 56.0066C430.93 56.8478 428.643 57.8951 427.673 61.0518C426.703 64.2084 428.006 66.3587 429.054 68.0864C430.018 69.6753 430.499 70.5718 430.052 72.0279C429.604 73.4838 428.702 73.9552 427.013 74.7286C425.176 75.5698 422.889 76.6166 421.919 79.773C421.61 80.7782 422.174 81.8435 423.18 82.1525C423.366 82.2099 423.555 82.237 423.74 82.237C424.554 82.237 425.308 81.7107 425.56 80.8917C426.007 79.4358 426.909 78.9643 428.599 78.191C430.436 77.3498 432.722 76.303 433.692 73.1466C434.663 69.9899 433.359 67.8397 432.311 66.1119C431.348 64.523 430.866 63.6265 431.313 62.1704C431.761 60.7143 432.663 60.2426 434.353 59.469C436.19 58.6278 438.476 57.5805 439.446 54.4238C440.417 51.2669 439.113 49.1167 438.065 47.3886C437.102 45.7998 436.62 44.9028 437.068 43.4464C437.515 41.9901 438.418 41.5183 440.107 40.7447C441.944 39.9033 444.231 38.8562 445.201 35.699C445.51 34.6939 444.945 33.6285 443.94 33.3195Z" fill="#86DF75"/>
<path d="M426.105 177.085C425.101 176.776 424.035 177.34 423.726 178.345C423.278 179.802 422.376 180.274 420.687 181.047C418.849 181.889 416.563 182.936 415.593 186.093C414.622 189.25 415.926 191.4 416.974 193.128C417.937 194.717 418.419 195.614 417.971 197.07C417.524 198.526 416.621 198.998 414.932 199.772C413.095 200.613 410.808 201.66 409.838 204.817C408.868 207.973 410.172 210.124 411.22 211.851C412.183 213.44 412.665 214.337 412.217 215.793C411.77 217.249 410.868 217.72 409.178 218.494C407.341 219.335 405.055 220.382 404.085 223.538C403.776 224.543 404.34 225.609 405.345 225.918C405.532 225.975 405.72 226.002 405.905 226.002C406.72 226.002 407.473 225.476 407.725 224.657C408.173 223.201 409.075 222.729 410.764 221.956C412.601 221.115 414.888 220.068 415.858 216.912C416.828 213.755 415.524 211.605 414.476 209.877C413.513 208.288 413.032 207.392 413.479 205.935C413.927 204.479 414.829 204.008 416.518 203.234C418.355 202.393 420.642 201.346 421.612 198.189C422.582 195.032 421.278 192.882 420.231 191.154C419.267 189.565 418.786 188.668 419.233 187.211C419.681 185.755 420.583 185.283 422.273 184.51C424.11 183.668 426.396 182.621 427.367 179.464C427.675 178.459 427.111 177.394 426.105 177.085Z" fill="#86DF75"/>
<path d="M127.67 77.0442C126.972 76.2577 125.768 76.1866 124.982 76.8851C124.195 77.5833 124.124 78.7867 124.822 79.5733L132.207 87.8889C132.583 88.3126 133.106 88.5287 133.632 88.5287C134.081 88.5287 134.533 88.3703 134.895 88.0481C135.681 87.3499 135.753 86.1464 135.055 85.3598L127.67 77.0442Z" fill="#1371EF"/>
<path d="M83.0162 111.223L71.9857 112.642C70.9427 112.776 70.2059 113.73 70.34 114.773C70.4636 115.734 71.2827 116.435 72.2264 116.435C72.3071 116.435 72.3892 116.429 72.4717 116.419L83.5022 115.001C84.5452 114.866 85.282 113.912 85.1479 112.869C85.0136 111.826 84.0612 111.087 83.0162 111.223Z" fill="#1371EF"/>
<path d="M41.9906 85.3381C41.2924 84.5515 40.0887 84.4804 39.3024 85.1789C38.5161 85.8771 38.4447 87.0806 39.1429 87.8671L46.5277 96.1827C46.904 96.6065 47.427 96.8225 47.9523 96.8225C48.402 96.8225 48.8534 96.6641 49.216 96.3419C50.0023 95.6437 50.0736 94.4402 49.3754 93.6537L41.9906 85.3381Z" fill="#ABEEFF"/>
<path d="M24.6436 17.6401C23.9454 16.8535 22.7417 16.7824 21.9554 17.4809L13.6398 24.8657C12.8535 25.5639 12.7821 26.7674 13.4803 27.5539C13.8566 27.9777 14.3796 28.1937 14.9049 28.1937C15.3546 28.1937 15.806 28.0353 16.1686 27.7131L24.4839 20.3283C25.2705 19.6301 25.3418 18.4266 24.6436 17.6401Z" fill="#ABEEFF"/>
<path d="M225.644 178.64C224.945 177.853 223.742 177.782 222.955 178.481L214.64 185.865C213.853 186.564 213.782 187.767 214.48 188.554C214.857 188.977 215.38 189.193 215.905 189.193C216.355 189.193 216.806 189.035 217.169 188.713L225.484 181.328C226.27 180.63 226.342 179.426 225.644 178.64Z" fill="#ABEEFF"/>
<path d="M27.6029 45.1985C26.9047 44.4121 25.701 44.3408 24.9147 45.0393C24.1284 45.7375 24.057 46.9409 24.7552 47.7275L32.14 56.0431C32.5163 56.4668 33.0393 56.6829 33.5646 56.6829C34.0143 56.6829 34.4657 56.5245 34.8283 56.2023C35.6146 55.5041 35.6859 54.3006 34.9877 53.514L27.6029 45.1985Z" fill="#1371EF"/>
<path d="M142.863 28.5614L138.799 18.2091C138.415 17.2303 137.31 16.7477 136.331 17.1323C135.352 17.5167 134.87 18.6217 135.254 19.6007L139.318 29.953C139.612 30.7035 140.331 31.1621 141.091 31.1621C141.322 31.1621 141.558 31.1197 141.786 31.0298C142.765 30.6454 143.247 29.5404 142.863 28.5614Z" fill="#1371EF"/>
<path d="M135.814 54.766L125.383 58.6221C124.397 58.987 123.893 60.082 124.257 61.0687C124.541 61.8372 125.269 62.313 126.044 62.313C126.263 62.313 126.486 62.2749 126.704 62.1945L137.135 58.3383C138.122 57.9734 138.625 56.8784 138.261 55.8918C137.896 54.9056 136.8 54.4019 135.814 54.766Z" fill="#ABEEFF"/>
<path d="M455.676 19.0442C454.977 18.2577 453.774 18.1866 452.987 18.8851C452.201 19.5833 452.13 20.7867 452.828 21.5733L460.213 29.8889C460.589 30.3126 461.112 30.5287 461.637 30.5287C462.087 30.5287 462.538 30.3703 462.901 30.0481C463.687 29.3499 463.759 28.1464 463.06 27.3598L455.676 19.0442Z" fill="#1371EF"/>
<path d="M300.676 0.514249C299.977 -0.272319 298.774 -0.34341 297.987 0.355056C297.201 1.05327 297.13 2.25673 297.828 3.0433L305.213 11.3589C305.589 11.7826 306.112 11.9987 306.637 11.9987C307.087 11.9987 307.538 11.8403 307.901 11.5181C308.687 10.8199 308.759 9.6164 308.06 8.82983L300.676 0.514249Z" fill="#1371EF"/>
<path d="M408.017 36.2209L396.986 37.6391C395.943 37.7732 395.206 38.7273 395.34 39.7706C395.464 40.7313 396.283 41.4323 397.227 41.4323C397.308 41.4323 397.39 41.427 397.472 41.4164L408.503 39.9981C409.546 39.864 410.282 38.9099 410.148 37.8666C410.014 36.8236 409.062 36.0845 408.017 36.2209Z" fill="#1371EF"/>
<path d="M461.994 85.4892L452.642 79.4716C451.758 78.9029 450.579 79.1583 450.01 80.0426C449.441 80.9269 449.697 82.1055 450.581 82.6745L459.934 88.6921C460.252 88.8972 460.609 88.995 460.962 88.995C461.588 88.995 462.201 88.6865 462.565 88.1211C463.134 87.2367 462.878 86.0584 461.994 85.4892Z" fill="#ABEEFF"/>
<path d="M369.996 27.338C369.298 26.5515 368.094 26.4804 367.308 27.1788C366.521 27.8771 366.45 29.0805 367.148 29.8671L374.533 38.1827C374.909 38.6064 375.432 38.8225 375.958 38.8225C376.407 38.8225 376.859 38.6641 377.221 38.3419C378.008 37.6437 378.079 36.4402 377.381 35.6536L369.996 27.338Z" fill="#ABEEFF"/>
<path d="M463.82 -3.23396L453.388 0.622202C452.402 0.98705 451.898 2.0821 452.263 3.06874C452.547 3.83728 453.275 4.31308 454.049 4.31308C454.268 4.31308 454.491 4.275 454.709 4.19451L465.14 0.338348C466.127 -0.0264997 466.631 -1.12155 466.266 -2.10819C465.901 -3.09432 464.806 -3.59805 463.82 -3.23396Z" fill="#ABEEFF"/>
</g>
<defs>
<clipPath id="clip0_361_8523">
<path d="M0 16C0 7.16345 7.16344 0 16 0H472C480.837 0 488 7.16344 488 16V198H0V16Z" fill="white"/>
</clipPath>
</defs>
</svg>
