<svg width="1073" height="415" viewBox="0 0 1073 415" fill="none" xmlns="http://www.w3.org/2000/svg">
<path d="M67.5984 0.650024H0.648438V69.55M67.5984 0.650024V69.55M67.5984 0.650024H134.548M67.5984 69.55H0.648438M67.5984 69.55V138.45M67.5984 69.55H134.548M0.648438 69.55V138.45M67.5984 138.45H0.648438M67.5984 138.45V207.35M67.5984 138.45H134.548M0.648438 138.45V207.35M67.5984 207.35H0.648438M67.5984 207.35V276.25M67.5984 207.35H134.548M0.648438 207.35V276.25M67.5984 276.25H0.648438M67.5984 276.25V345.15M67.5984 276.25H134.548M0.648438 276.25V345.15M67.5984 345.15H0.648438M67.5984 345.15V414.05M67.5984 345.15H134.548M0.648438 345.15V414.05H67.5984M67.5984 414.05H134.548M134.548 0.650024V69.55M134.548 0.650024H201.498M134.548 69.55V138.45M134.548 69.55H201.498M134.548 138.45V207.35M134.548 138.45H201.498M134.548 207.35V276.25M134.548 207.35H201.498M134.548 276.25V345.15M134.548 276.25H201.498M134.548 345.15V414.05M134.548 345.15H201.498M134.548 414.05H201.498M201.498 0.650024V69.55M201.498 0.650024H268.448M201.498 69.55V138.45M201.498 69.55H268.448M201.498 138.45V207.35M201.498 138.45H268.448M201.498 207.35V276.25M201.498 207.35H268.448M201.498 276.25V345.15M201.498 276.25H268.448M201.498 345.15V414.05M201.498 345.15H268.448M201.498 414.05H268.448M268.448 0.650024V69.55M268.448 0.650024H335.398M268.448 69.55V138.45M268.448 69.55H335.398M268.448 138.45V207.35M268.448 138.45H335.398M268.448 207.35V276.25M268.448 207.35H335.398M268.448 276.25V345.15M268.448 276.25H335.398M268.448 345.15V414.05M268.448 345.15H335.398M268.448 414.05H335.398M335.398 0.650024V69.55M335.398 0.650024H402.348M335.398 69.55V138.45M335.398 69.55H402.348M335.398 138.45V207.35M335.398 138.45H402.348M335.398 207.35V276.25M335.398 207.35H402.348M335.398 276.25V345.15M335.398 276.25H402.348M335.398 345.15V414.05M335.398 345.15H402.348M335.398 414.05H402.348M402.348 0.650024V69.55M402.348 0.650024H469.298M402.348 69.55V138.45M402.348 69.55H469.298M402.348 138.45V207.35M402.348 138.45H469.298M402.348 207.35V276.25M402.348 207.35H469.298M402.348 276.25V345.15M402.348 276.25H469.298M402.348 345.15V414.05M402.348 345.15H469.298M402.348 414.05H469.298M469.298 0.650024V69.55M469.298 0.650024H536.248M469.298 69.55V138.45M469.298 69.55H536.248M469.298 138.45V207.35M469.298 138.45H536.248M469.298 207.35V276.25M469.298 207.35H536.248M469.298 276.25V345.15M469.298 276.25H536.248M469.298 345.15V414.05M469.298 345.15H536.248M469.298 414.05H536.248M536.248 0.650024V69.55M536.248 0.650024H603.198M536.248 69.55V138.45M536.248 69.55H603.198M536.248 138.45V207.35M536.248 138.45H603.198M536.248 207.35V276.25M536.248 207.35H603.198M536.248 276.25V345.15M536.248 276.25H603.198M536.248 345.15V414.05M536.248 345.15H603.198M536.248 414.05H603.198M603.198 0.650024V69.55M603.198 0.650024H670.148M603.198 69.55V138.45M603.198 69.55H670.148M603.198 138.45V207.35M603.198 138.45H670.148M603.198 207.35V276.25M603.198 207.35H670.148M603.198 276.25V345.15M603.198 276.25H670.148M603.198 345.15V414.05M603.198 345.15H670.148M603.198 414.05H670.148M670.148 0.650024V69.55M670.148 0.650024H737.098M670.148 69.55V138.45M670.148 69.55H737.098M670.148 138.45V207.35M670.148 138.45H737.098M670.148 207.35V276.25M670.148 207.35H737.098M670.148 276.25V345.15M670.148 276.25H737.098M670.148 345.15V414.05M670.148 345.15H737.098M670.148 414.05H737.098M737.098 0.650024V69.55M737.098 0.650024H804.048M737.098 69.55V138.45M737.098 69.55H804.048M737.098 138.45V207.35M737.098 138.45H804.048M737.098 207.35V276.25M737.098 207.35H804.048M737.098 276.25V345.15M737.098 276.25H804.048M737.098 345.15V414.05M737.098 345.15H804.048M737.098 414.05H804.048M804.048 0.650024V69.55M804.048 0.650024H870.998M804.048 69.55V138.45M804.048 69.55H870.998M804.048 138.45V207.35M804.048 138.45H870.998M804.048 207.35V276.25M804.048 207.35H870.998M804.048 276.25V345.15M804.048 276.25H870.998M804.048 345.15V414.05M804.048 345.15H870.998M804.048 414.05H870.998M870.998 0.650024V69.55M870.998 0.650024H937.948M870.998 69.55V138.45M870.998 69.55H937.948M870.998 138.45V207.35M870.998 138.45H937.948M870.998 207.35V276.25M870.998 207.35H937.948M870.998 276.25V345.15M870.998 276.25H937.948M870.998 345.15V414.05M870.998 345.15H937.948M870.998 414.05H937.948M937.948 0.650024V69.55M937.948 0.650024H1004.9M937.948 69.55V138.45M937.948 69.55H1004.9M937.948 138.45V207.35M937.948 138.45H1004.9M937.948 207.35V276.25M937.948 207.35H1004.9M937.948 276.25V345.15M937.948 276.25H1004.9M937.948 345.15V414.05M937.948 345.15H1004.9M937.948 414.05H1004.9M1004.9 0.650024V69.55M1004.9 0.650024H1071.85V69.55M1004.9 69.55V138.45M1004.9 69.55H1071.85M1004.9 138.45V207.35M1004.9 138.45H1071.85M1004.9 207.35V276.25M1004.9 207.35H1071.85M1004.9 276.25V345.15M1004.9 276.25H1071.85M1004.9 345.15V414.05M1004.9 345.15H1071.85M1004.9 414.05H1071.85V345.15M1071.85 69.55V138.45M1071.85 138.45V207.35M1071.85 207.35V276.25M1071.85 276.25V345.15" stroke="url(#paint0_radial_1668_22115)" stroke-opacity="0.24" stroke-width="1.3"/>
<defs>
<radialGradient id="paint0_radial_1668_22115" cx="0" cy="0" r="1" gradientUnits="userSpaceOnUse" gradientTransform="translate(536.248 207.35) rotate(90) scale(206.7 535.6)">
<stop stop-color="#717784"/>
<stop offset="1" stop-color="#717784" stop-opacity="0"/>
</radialGradient>
</defs>
</svg>
