<svg width="174" height="279" viewBox="0 0 174 279" fill="none" xmlns="http://www.w3.org/2000/svg">
<path d="M83.625 43.0752C95.6006 41.4499 107.761 49.558 111.076 61.4834L111.078 61.4902C111.602 63.2775 111.919 65.118 112.025 66.9756L112.058 67.7725C112.167 78.2435 112.117 125.758 112.117 136.229C112.117 136.432 112.102 136.618 112.08 136.848C95.0444 129.32 78.0752 129.35 60.9385 136.826L60.9072 133.715C60.9072 125.381 60.8619 88.6782 60.8906 73.2627L60.9072 68.1035C61.0054 55.3656 70.5583 44.8436 83.625 43.0752Z" fill="white" stroke="#CACFD8"/>
<path d="M19.5879 0.5H153.938C156.732 0.497507 159.49 1.1232 162.009 2.33008C164.528 3.53699 166.744 5.29422 168.492 7.47266C170.241 9.65119 171.477 12.1953 172.11 14.916C172.704 17.4666 172.752 20.1115 172.256 22.6787L172.149 23.1914L147.779 133.191L147.722 133.452L147.905 133.645C159.499 145.815 167.249 161.133 170.186 177.684C173.122 194.234 171.115 211.283 164.415 226.698C157.715 242.114 146.62 255.213 132.517 264.357C118.413 273.502 101.927 278.287 85.1191 278.114C68.3115 277.941 51.9275 272.818 38.0156 263.385C24.1036 253.951 13.2811 240.626 6.90039 225.075C0.519706 209.525 -1.13597 192.438 2.14062 175.952C5.41725 159.466 13.4801 144.311 25.3223 132.382L25.5146 132.188L25.4561 131.922L1.37598 23.1924V23.1914C0.770805 20.4651 0.785239 17.6378 1.41895 14.918C2.05273 12.1981 3.28909 9.65463 5.03711 7.47656C6.78516 5.29851 9.00032 3.54053 11.5186 2.33301C14.0369 1.12549 16.795 0.499259 19.5879 0.5ZM130.187 64.9238C127.839 32.834 92.2226 14.1708 64.4932 30.5293C49.895 39.1427 42.6691 52.349 42.5176 69.2656V69.2666C42.4278 83.2197 42.5073 134.328 42.4277 148.324C42.3768 149.317 42.0036 150.267 41.3643 151.028C28.1655 165.934 22.8397 183.241 26.0645 202.852C31.5694 236.303 63.4783 259.082 96.8164 253.032H96.8174C120.401 248.731 136.862 234.897 144.502 212.14C152.063 189.649 147.252 169.096 131.756 151.123C131.086 150.309 130.678 149.313 130.582 148.266L130.567 148.055C130.448 140.416 130.508 132.749 130.508 125.08V124.58H130.279C130.297 115.669 130.737 72.4366 130.187 64.9238Z" fill="white" stroke="#CACFD8"/>
</svg>
