<svg width="11" height="12" viewBox="0 0 11 12" fill="none" xmlns="http://www.w3.org/2000/svg">
<path d="M5.27985 0C5.43898 0 5.59159 0.0632141 5.70411 0.175736C5.81663 0.288258 5.87985 0.44087 5.87985 0.6V2.4C5.87985 2.55913 5.81663 2.71174 5.70411 2.82426C5.59159 2.93679 5.43898 3 5.27985 3C5.12072 3 4.9681 2.93679 4.85558 2.82426C4.74306 2.71174 4.67985 2.55913 4.67985 2.4V0.6C4.67985 0.44087 4.74306 0.288258 4.85558 0.175736C4.9681 0.0632141 5.12072 0 5.27985 0V0ZM5.27985 9C5.43898 9 5.59159 9.06321 5.70411 9.17574C5.81663 9.28826 5.87985 9.44087 5.87985 9.6V11.4C5.87985 11.5591 5.81663 11.7117 5.70411 11.8243C5.59159 11.9368 5.43898 12 5.27985 12C5.12072 12 4.9681 11.9368 4.85558 11.8243C4.74306 11.7117 4.67985 11.5591 4.67985 11.4V9.6C4.67985 9.44087 4.74306 9.28826 4.85558 9.17574C4.9681 9.06321 5.12072 9 5.27985 9V9ZM10.4758 3C10.5554 3.13781 10.577 3.30158 10.5358 3.45528C10.4946 3.60898 10.394 3.74003 10.2562 3.8196L8.69745 4.7196C8.62918 4.75962 8.55368 4.78574 8.47528 4.79646C8.39688 4.80718 8.31714 4.80228 8.24064 4.78206C8.16414 4.76183 8.0924 4.72668 8.02954 4.67861C7.96668 4.63055 7.91395 4.57052 7.87439 4.502C7.83482 4.43347 7.8092 4.35779 7.799 4.27933C7.78881 4.20086 7.79423 4.12115 7.81496 4.04478C7.83569 3.96842 7.87133 3.89691 7.91981 3.83438C7.96829 3.77184 8.02866 3.71951 8.09745 3.6804L9.65625 2.7804C9.79405 2.70084 9.95782 2.67928 10.1115 2.72046C10.2652 2.76164 10.3963 2.8622 10.4758 3V3ZM2.68185 7.5C2.76141 7.63781 2.78297 7.80158 2.74179 7.95528C2.7006 8.10898 2.60005 8.24003 2.46225 8.3196L0.903447 9.2196C0.835184 9.25962 0.75968 9.28574 0.681282 9.29646C0.602883 9.30718 0.523139 9.30228 0.446639 9.28206C0.370139 9.26183 0.298396 9.22668 0.235539 9.17861C0.172682 9.13055 0.119953 9.07052 0.0803885 9.002C0.0408237 8.93347 0.0152042 8.8578 0.00500502 8.77933C-0.00519414 8.70086 0.000228553 8.62115 0.0209608 8.54479C0.0416931 8.46842 0.0773254 8.39691 0.125806 8.33438C0.174287 8.27184 0.234659 8.21951 0.303447 8.1804L1.86225 7.2804C2.00005 7.20084 2.16382 7.17928 2.31753 7.22046C2.47123 7.26164 2.60228 7.3622 2.68185 7.5ZM10.4758 9C10.3963 9.1378 10.2652 9.23836 10.1115 9.27954C9.95782 9.32072 9.79405 9.29916 9.65625 9.2196L8.09745 8.3196C7.96076 8.23947 7.86132 8.10853 7.82082 7.95535C7.78033 7.80217 7.80206 7.6392 7.88128 7.50198C7.9605 7.36477 8.09078 7.26446 8.24369 7.22295C8.39659 7.18144 8.55971 7.20209 8.69745 7.2804L10.2562 8.1804C10.394 8.25997 10.4946 8.39102 10.5358 8.54472C10.577 8.69842 10.5554 8.86219 10.4758 9ZM2.68185 4.5C2.60228 4.6378 2.47123 4.73836 2.31753 4.77954C2.16382 4.82072 2.00005 4.79916 1.86225 4.7196L0.303447 3.8196C0.234659 3.78049 0.174287 3.72816 0.125806 3.66562C0.0773254 3.60309 0.0416931 3.53158 0.0209608 3.45522C0.000228553 3.37885 -0.00519414 3.29914 0.00500502 3.22067C0.0152042 3.14221 0.0408237 3.06653 0.0803885 2.998C0.119953 2.92948 0.172682 2.86945 0.235539 2.82139C0.298396 2.77332 0.370139 2.73817 0.446639 2.71794C0.523139 2.69772 0.602883 2.69282 0.681282 2.70354C0.75968 2.71426 0.835184 2.74038 0.903447 2.7804L2.46225 3.6804C2.60005 3.75997 2.7006 3.89102 2.74179 4.04472C2.78297 4.19842 2.76141 4.36219 2.68185 4.5Z" fill="#99A0AE"/>
</svg>
